<svg width="97" height="132" viewBox="0 0 97 132" fill="none" xmlns="http://www.w3.org/2000/svg">
<path d="M30.6509 90.0231V77.6496C30.6509 77.134 30.6681 76.5239 30.7024 75.8193C30.7368 75.0976 30.7626 74.4789 30.7798 73.9633H30.6767C30.4361 74.4445 30.1869 74.9343 29.9291 75.4327C29.6885 75.931 29.4307 76.4208 29.1558 76.902L25.4437 82.599H35.8323V84.919H22.4277V82.9341L29.9807 71.0246H33.4349V90.0231H30.6509ZM43.9862 90.384C42.7489 90.384 41.6662 90.0145 40.7382 89.2755C39.8102 88.5365 39.0884 87.4367 38.5728 85.9759C38.0744 84.498 37.8252 82.6591 37.8252 80.4594C37.8252 78.2597 38.0744 76.438 38.5728 74.9944C39.0884 73.5509 39.8102 72.4768 40.7382 71.7722C41.6662 71.0504 42.7489 70.6895 43.9862 70.6895C45.2236 70.6895 46.2976 71.0504 47.2085 71.7722C48.1193 72.494 48.8239 73.5766 49.3223 75.0202C49.8378 76.4466 50.0956 78.2597 50.0956 80.4594C50.0956 82.6591 49.8378 84.498 49.3223 85.9759C48.8239 87.4367 48.1193 88.5365 47.2085 89.2755C46.2976 90.0145 45.2236 90.384 43.9862 90.384ZM43.9862 88.0124C44.6221 88.0124 45.1892 87.7632 45.6876 87.2648C46.1859 86.7664 46.5726 85.9673 46.8476 84.8675C47.1225 83.7504 47.26 82.2811 47.26 80.4594C47.26 78.6377 47.1225 77.1856 46.8476 76.1029C46.5726 75.0202 46.1859 74.2383 45.6876 73.7571C45.1892 73.2759 44.6221 73.0353 43.9862 73.0353C43.3504 73.0353 42.7832 73.2759 42.2849 73.7571C41.7865 74.2383 41.3912 75.0202 41.0991 76.1029C40.8241 77.1856 40.6866 78.6377 40.6866 80.4594C40.6866 82.2811 40.8241 83.7504 41.0991 84.8675C41.3912 85.9673 41.7865 86.7664 42.2849 87.2648C42.7832 87.7632 43.3504 88.0124 43.9862 88.0124ZM56.1357 77.8816C55.4483 77.8816 54.8125 77.7269 54.2282 77.4176C53.6439 77.0911 53.1799 76.6356 52.8362 76.0513C52.4924 75.467 52.3206 74.7968 52.3206 74.0407C52.3206 73.2501 52.4924 72.5713 52.8362 72.0042C53.1799 71.4199 53.6439 70.9645 54.2282 70.6379C54.8125 70.3114 55.4483 70.1482 56.1357 70.1482C56.8403 70.1482 57.4762 70.3114 58.0433 70.6379C58.6276 70.9645 59.0916 71.4199 59.4353 72.0042C59.7962 72.5713 59.9767 73.2501 59.9767 74.0407C59.9767 74.7968 59.7962 75.467 59.4353 76.0513C59.0916 76.6356 58.6276 77.0911 58.0433 77.4176C57.4762 77.7269 56.8403 77.8816 56.1357 77.8816ZM56.1357 76.3091C56.7716 76.3091 57.2872 76.1029 57.6824 75.6905C58.0777 75.2608 58.2753 74.7109 58.2753 74.0407C58.2753 73.3532 58.0777 72.8033 57.6824 72.3909C57.2872 71.9612 56.7716 71.7464 56.1357 71.7464C55.5171 71.7464 55.0101 71.9612 54.6148 72.3909C54.2368 72.8033 54.0477 73.3532 54.0477 74.0407C54.0477 74.7109 54.2368 75.2608 54.6148 75.6905C55.0101 76.1029 55.5171 76.3091 56.1357 76.3091ZM70.391 90.384C68.7756 90.384 67.3148 89.9973 66.0088 89.224C64.7199 88.4506 63.6973 87.3421 62.9412 85.8986C62.2022 84.4378 61.8327 82.6677 61.8327 80.5883C61.8327 79.0416 62.0475 77.6582 62.4772 76.438C62.924 75.2179 63.5427 74.1781 64.3332 73.3189C65.1237 72.4596 66.0431 71.8066 67.0914 71.3597C68.1397 70.9129 69.274 70.6895 70.4941 70.6895C71.6456 70.6895 72.6767 70.9387 73.5875 71.4371C74.5155 71.9183 75.2631 72.4596 75.8302 73.0611L74.1289 74.9944C73.6477 74.4789 73.1149 74.0836 72.5306 73.8087C71.9463 73.5165 71.2847 73.3704 70.5457 73.3704C69.4458 73.3704 68.4749 73.6626 67.6328 74.2469C66.8079 74.814 66.1548 75.6303 65.6736 76.6958C65.2096 77.7441 64.9776 79.0072 64.9776 80.4852C64.9776 81.9631 65.201 83.2434 65.6479 84.3261C66.0947 85.4088 66.722 86.2423 67.5297 86.8266C68.3546 87.4109 69.3255 87.703 70.4426 87.703C71.3019 87.703 72.058 87.5312 72.7111 87.1875C73.3641 86.8438 73.9656 86.3626 74.5155 85.7439L76.2427 87.6257C75.4693 88.5022 74.5929 89.181 73.6133 89.6622C72.6509 90.1434 71.5768 90.384 70.391 90.384Z" fill="black"/>
<rect x="1.93336" y="1.93336" width="92.8011" height="127.602" rx="7.08898" stroke="black" stroke-width="3.86671"/>
<path d="M2.57812 28.3558H92.8014" stroke="black" stroke-width="5.15562" stroke-linecap="round"/>
<circle cx="83.1339" cy="16.1113" r="5.80007" stroke="black" stroke-width="2.57781"/>
</svg>
