<svg width="110" height="124" viewBox="0 0 110 124" fill="none" xmlns="http://www.w3.org/2000/svg">
<path d="M38.1357 58.3446H41.3507V60.1057H38.1357V58.3446ZM38.1357 62.3582H41.3507V64.1398H38.1357V62.3582ZM36.6408 55.6825H38.7705V66.7609H36.6408V55.6825ZM26.4839 67.58H38.7705V74.3991H36.6408V69.3002H26.4839V67.58ZM29.3713 56.7473C30.3269 56.7473 31.1801 56.9384 31.931 57.3207C32.6818 57.7029 33.2688 58.2354 33.6921 58.918C34.1289 59.5869 34.3473 60.3582 34.3473 61.2319C34.3473 62.1193 34.1289 62.9043 33.6921 63.5869C33.2688 64.2558 32.6818 64.7814 31.931 65.1637C31.1801 65.5459 30.3269 65.737 29.3713 65.737C28.4293 65.737 27.5829 65.5459 26.832 65.1637C26.0812 64.7814 25.4873 64.2558 25.0505 63.5869C24.6273 62.9043 24.4156 62.1193 24.4156 61.2319C24.4156 60.3582 24.6273 59.5869 25.0505 58.918C25.4873 58.2354 26.0812 57.7029 26.832 57.3207C27.5829 56.9384 28.4293 56.7473 29.3713 56.7473ZM29.3917 58.5698C28.832 58.5698 28.3337 58.679 27.8969 58.8975C27.4737 59.1159 27.1324 59.4299 26.873 59.8395C26.6272 60.2354 26.5044 60.6995 26.5044 61.2319C26.5044 61.778 26.6272 62.2558 26.873 62.6654C27.1324 63.0613 27.4737 63.3753 27.8969 63.6074C28.3337 63.8258 28.832 63.935 29.3917 63.935C29.9378 63.935 30.4293 63.8258 30.8661 63.6074C31.303 63.3753 31.6443 63.0613 31.89 62.6654C32.1357 62.2558 32.2586 61.778 32.2586 61.2319C32.2586 60.6995 32.1357 60.2354 31.89 59.8395C31.6443 59.4299 31.303 59.1159 30.8661 58.8975C30.4293 58.679 29.9378 58.5698 29.3917 58.5698ZM47.5539 72.9862C46.7621 72.9862 46.059 72.8906 45.4447 72.6995C44.844 72.5083 44.3116 72.2558 43.8474 71.9418C43.3832 71.6141 42.9805 71.266 42.6392 70.8974L43.786 69.3821C44.2365 69.8189 44.7484 70.2012 45.3218 70.5288C45.8952 70.8565 46.5709 71.0203 47.3491 71.0203C47.9225 71.0203 48.4208 70.9247 48.844 70.7336C49.2672 70.5288 49.5948 70.2421 49.8269 69.8735C50.0726 69.5049 50.1955 69.0544 50.1955 68.522C50.1955 67.9759 50.059 67.4981 49.7859 67.0886C49.5266 66.6654 49.0692 66.3445 48.4139 66.1261C47.7723 65.894 46.8849 65.778 45.7518 65.778V64.0169C46.7484 64.0169 47.5266 63.9077 48.0863 63.6893C48.6597 63.4572 49.0692 63.1432 49.315 62.7473C49.5743 62.3514 49.704 61.9009 49.704 61.3958C49.704 60.7405 49.4993 60.2217 49.0897 59.8395C48.6801 59.4436 48.1136 59.2456 47.3901 59.2456C46.8167 59.2456 46.2774 59.3753 45.7723 59.6347C45.2808 59.8804 44.8167 60.2149 44.3798 60.6381L43.1512 59.1637C43.7518 58.6176 44.4071 58.1808 45.117 57.8531C45.8269 57.5118 46.6119 57.3412 47.472 57.3412C48.373 57.3412 49.1716 57.4982 49.8679 57.8122C50.5641 58.1125 51.1102 58.5494 51.5061 59.1227C51.902 59.6961 52.0999 60.3992 52.0999 61.2319C52.0999 62.092 51.861 62.8224 51.3832 63.4231C50.919 64.0237 50.2911 64.4742 49.4993 64.7746V64.8565C50.0726 65.0067 50.5914 65.2524 51.0556 65.5937C51.5334 65.9213 51.9088 66.3445 52.1818 66.8633C52.4549 67.3821 52.5914 67.9759 52.5914 68.6449C52.5914 69.5459 52.3593 70.324 51.8952 70.9793C51.4446 71.621 50.8371 72.1193 50.0726 72.4742C49.3081 72.8155 48.4685 72.9862 47.5539 72.9862ZM59.6012 72.9862C58.6182 72.9862 57.7582 72.6926 57.021 72.1056C56.2838 71.5186 55.7104 70.6449 55.3009 69.4845C54.9049 68.3104 54.707 66.8497 54.707 65.1022C54.707 63.3548 54.9049 61.9077 55.3009 60.761C55.7104 59.6142 56.2838 58.761 57.021 58.2012C57.7582 57.6279 58.6182 57.3412 59.6012 57.3412C60.5841 57.3412 61.4373 57.6279 62.1609 58.2012C62.8844 58.7746 63.4442 59.6347 63.8401 60.7814C64.2496 61.9145 64.4544 63.3548 64.4544 65.1022C64.4544 66.8497 64.2496 68.3104 63.8401 69.4845C63.4442 70.6449 62.8844 71.5186 62.1609 72.1056C61.4373 72.6926 60.5841 72.9862 59.6012 72.9862ZM59.6012 71.1022C60.1063 71.1022 60.5568 70.9042 60.9527 70.5083C61.3486 70.1124 61.6558 69.4776 61.8742 68.6039C62.0926 67.7166 62.2018 66.5493 62.2018 65.1022C62.2018 63.6551 62.0926 62.5016 61.8742 61.6415C61.6558 60.7814 61.3486 60.1603 60.9527 59.778C60.5568 59.3958 60.1063 59.2046 59.6012 59.2046C59.0961 59.2046 58.6455 59.3958 58.2496 59.778C57.8537 60.1603 57.5397 60.7814 57.3077 61.6415C57.0892 62.5016 56.98 63.6551 56.98 65.1022C56.98 66.5493 57.0892 67.7166 57.3077 68.6039C57.5397 69.4776 57.8537 70.1124 58.2496 70.5083C58.6455 70.9042 59.0961 71.1022 59.6012 71.1022ZM69.2526 63.0545C68.7065 63.0545 68.2014 62.9316 67.7372 62.6859C67.2731 62.4265 66.9045 62.0647 66.6314 61.6005C66.3584 61.1364 66.2219 60.604 66.2219 60.0033C66.2219 59.3753 66.3584 58.836 66.6314 58.3855C66.9045 57.9214 67.2731 57.5596 67.7372 57.3002C68.2014 57.0408 68.7065 56.9111 69.2526 56.9111C69.8123 56.9111 70.3174 57.0408 70.7679 57.3002C71.2321 57.5596 71.6007 57.9214 71.8737 58.3855C72.1604 58.836 72.3038 59.3753 72.3038 60.0033C72.3038 60.604 72.1604 61.1364 71.8737 61.6005C71.6007 62.0647 71.2321 62.4265 70.7679 62.6859C70.3174 62.9316 69.8123 63.0545 69.2526 63.0545ZM69.2526 61.8053C69.7577 61.8053 70.1673 61.6415 70.4812 61.3138C70.7952 60.9726 70.9522 60.5357 70.9522 60.0033C70.9522 59.4572 70.7952 59.0203 70.4812 58.6927C70.1673 58.3514 69.7577 58.1808 69.2526 58.1808C68.7611 58.1808 68.3584 58.3514 68.0444 58.6927C67.7441 59.0203 67.5939 59.4572 67.5939 60.0033C67.5939 60.5357 67.7441 60.9726 68.0444 61.3138C68.3584 61.6415 68.7611 61.8053 69.2526 61.8053ZM80.5768 72.9862C79.2935 72.9862 78.1331 72.679 77.0955 72.0647C76.0717 71.4503 75.2594 70.5698 74.6587 69.423C74.0717 68.2626 73.7782 66.8565 73.7782 65.2046C73.7782 63.976 73.9488 62.877 74.2901 61.9077C74.645 60.9384 75.1365 60.1125 75.7645 59.4299C76.3925 58.7473 77.1229 58.2285 77.9556 57.8736C78.7884 57.5186 79.6894 57.3412 80.6587 57.3412C81.5733 57.3412 82.3925 57.5391 83.116 57.935C83.8532 58.3173 84.447 58.7473 84.8976 59.2251L83.546 60.761C83.1638 60.3514 82.7406 60.0374 82.2764 59.819C81.8122 59.5869 81.2867 59.4709 80.6996 59.4709C79.8259 59.4709 79.0546 59.7029 78.3856 60.1671C77.7304 60.6176 77.2116 61.2661 76.8293 62.1125C76.4607 62.9452 76.2764 63.9486 76.2764 65.1227C76.2764 66.2968 76.4539 67.3138 76.8089 68.1739C77.1638 69.034 77.6621 69.6961 78.3037 70.1602C78.959 70.6244 79.7303 70.8565 80.6177 70.8565C81.3003 70.8565 81.901 70.7199 82.4198 70.4469C82.9385 70.1739 83.4163 69.7916 83.8532 69.3002L85.2252 70.795C84.6109 71.4913 83.9146 72.0305 83.1365 72.4128C82.372 72.795 81.5187 72.9862 80.5768 72.9862ZM44.0405 88.0408H46.1907V91.3377H44.0405V88.0408ZM36.6685 87.3241H53.5831V89.0442H36.6685V87.3241ZM45.0849 90.7029C47.1053 90.7029 48.6821 90.9964 49.8152 91.5834C50.962 92.1568 51.5354 92.9759 51.5354 94.0408C51.5354 95.1056 50.962 95.9247 49.8152 96.4981C48.6821 97.0715 47.1053 97.3582 45.0849 97.3582C43.0781 97.3582 41.5013 97.0715 40.3545 96.4981C39.2214 95.9247 38.6549 95.1056 38.6549 94.0408C38.6549 92.9759 39.2214 92.1568 40.3545 91.5834C41.5013 90.9964 43.0781 90.7029 45.0849 90.7029ZM45.0849 92.3616C44.1838 92.3616 43.4125 92.4299 42.7709 92.5664C42.1293 92.6892 41.6378 92.8735 41.2965 93.1193C40.9688 93.365 40.805 93.6722 40.805 94.0408C40.805 94.4094 40.9688 94.7234 41.2965 94.9827C41.6378 95.2285 42.1293 95.4128 42.7709 95.5356C43.4125 95.6585 44.1838 95.7199 45.0849 95.7199C46.0132 95.7199 46.7913 95.6585 47.4193 95.5356C48.061 95.4128 48.5456 95.2285 48.8732 94.9827C49.2009 94.7234 49.3647 94.4094 49.3647 94.0408C49.3647 93.6722 49.2009 93.365 48.8732 93.1193C48.5456 92.8735 48.061 92.6892 47.4193 92.5664C46.7913 92.4299 46.0132 92.3616 45.0849 92.3616ZM43.6924 80.3207H45.5968V80.8326C45.5968 81.4197 45.4808 81.9726 45.2487 82.4913C45.0166 82.9964 44.6821 83.4674 44.2453 83.9043C43.8084 84.3275 43.2897 84.7098 42.689 85.051C42.0883 85.3923 41.4125 85.6722 40.6617 85.8906C39.9245 86.1091 39.1259 86.2661 38.2658 86.3616L37.5081 84.6824C38.2453 84.6142 38.9279 84.4981 39.5559 84.3343C40.1975 84.1569 40.7709 83.9452 41.276 83.6995C41.7811 83.4538 42.2112 83.1807 42.5661 82.8804C42.9211 82.5664 43.1941 82.2388 43.3852 81.8975C43.59 81.5425 43.6924 81.1876 43.6924 80.8326V80.3207ZM44.6548 80.3207H46.5593V80.8326C46.5593 81.2012 46.6548 81.563 46.846 81.918C47.0371 82.2593 47.3101 82.5801 47.6651 82.8804C48.02 83.1807 48.45 83.4538 48.9552 83.6995C49.4739 83.9452 50.0473 84.1569 50.6753 84.3343C51.3169 84.4981 52.0063 84.6142 52.7435 84.6824L51.9859 86.3616C51.1258 86.2661 50.3203 86.1091 49.5695 85.8906C48.8323 85.6722 48.1565 85.3992 47.5422 85.0715C46.9415 84.7302 46.4227 84.348 45.9859 83.9248C45.5627 83.4879 45.235 83.0101 45.003 82.4913C44.7709 81.9589 44.6548 81.406 44.6548 80.8326V80.3207ZM38.2044 79.5016H52.0473V81.2012H38.2044V79.5016ZM60.0525 79.6859H61.834V81.5084C61.834 82.7371 61.6293 83.8838 61.2197 84.9487C60.8102 85.9998 60.2095 86.9213 59.4177 87.7132C58.6395 88.4913 57.6839 89.092 56.5508 89.5152L55.4245 87.7746C56.4348 87.4333 57.2812 86.9486 57.9638 86.3207C58.6463 85.679 59.1651 84.9418 59.5201 84.1091C59.875 83.2763 60.0525 82.4094 60.0525 81.5084V79.6859ZM60.4825 79.6859H62.2231V81.406C62.2231 82.2661 62.3869 83.0852 62.7146 83.8633C63.0559 84.6415 63.5542 85.3241 64.2095 85.9111C64.8647 86.4981 65.6634 86.9486 66.6054 87.2626L65.4791 88.9418C64.4142 88.5596 63.5064 87.9998 62.7555 87.2626C62.0047 86.5254 61.4381 85.6586 61.0559 84.662C60.6736 83.6654 60.4825 82.5801 60.4825 81.406V79.6859ZM68.8579 78.6825H71.0081V89.6995H68.8579V78.6825ZM64.7828 90.2114C66.735 90.2114 68.2709 90.5254 69.3903 91.1534C70.5234 91.7814 71.09 92.6619 71.09 93.795C71.09 94.9281 70.5234 95.8019 69.3903 96.4162C68.2709 97.0442 66.735 97.3582 64.7828 97.3582C62.8306 97.3582 61.288 97.0442 60.1549 96.4162C59.0218 95.8019 58.4552 94.9281 58.4552 93.795C58.4552 92.6619 59.0218 91.7814 60.1549 91.1534C61.288 90.5254 62.8306 90.2114 64.7828 90.2114ZM64.7828 91.8906C63.8955 91.8906 63.1378 91.9657 62.5098 92.1159C61.8955 92.2524 61.4245 92.464 61.0968 92.7507C60.7692 93.0374 60.6054 93.3855 60.6054 93.795C60.6054 94.1909 60.7692 94.5322 61.0968 94.8189C61.4245 95.1056 61.8955 95.324 62.5098 95.4742C63.1378 95.6244 63.8955 95.6995 64.7828 95.6995C65.6702 95.6995 66.4211 95.6244 67.0354 95.4742C67.6497 95.324 68.1207 95.1056 68.4483 94.8189C68.7896 94.5322 68.9603 94.1909 68.9603 93.795C68.9603 93.3855 68.7896 93.0374 68.4483 92.7507C68.1207 92.464 67.6497 92.2524 67.0354 92.1159C66.4211 91.9657 65.6702 91.8906 64.7828 91.8906ZM65.09 82.3889H69.247V84.15H65.09V82.3889Z" fill="black"/>
<path d="M29.1381 20.57H42.0595V22.3106H29.1381V20.57ZM29.1381 16.9249H31.2882V21.1843H29.1381V16.9249ZM27.0289 13.8738H43.9639V15.5939H27.0289V13.8738ZM34.4009 10.9454H36.5305V14.5086H34.4009V10.9454ZM34.3599 4.47448H36.2234V5.1912C36.2234 5.90109 36.1005 6.57003 35.8548 7.19801C35.609 7.826 35.2677 8.4062 34.8309 8.93862C34.394 9.47104 33.8684 9.94886 33.2541 10.3721C32.6534 10.7953 31.9777 11.157 31.2268 11.4574C30.4896 11.7577 29.6978 11.9761 28.8514 12.1127L28.0323 10.4335C28.7695 10.3243 29.4589 10.1536 30.1005 9.92155C30.7422 9.67582 31.3224 9.38913 31.8411 9.06149C32.3736 8.72019 32.8241 8.34477 33.1927 7.93521C33.5749 7.52566 33.8616 7.0888 34.0527 6.62464C34.2575 6.14682 34.3599 5.66901 34.3599 5.1912V4.47448ZM34.708 4.47448H36.551V5.1912C36.551 5.68266 36.6534 6.16048 36.8582 6.62464C37.063 7.0888 37.3496 7.52566 37.7182 7.93521C38.0868 8.34477 38.5305 8.72019 39.0493 9.06149C39.5817 9.40278 40.1687 9.68947 40.8104 9.92155C41.4657 10.1536 42.1619 10.3243 42.8991 10.4335L42.0595 12.1127C41.2268 11.9625 40.4418 11.7441 39.7046 11.4574C38.9674 11.1707 38.2916 10.8157 37.6773 10.3925C37.063 9.95568 36.5305 9.47787 36.08 8.9591C35.6432 8.42668 35.3019 7.84648 35.0561 7.21849C34.8241 6.57686 34.708 5.90109 34.708 5.1912V4.47448ZM53.2388 10.4949H56.6176V12.256H53.2388V10.4949ZM49.5323 5.68266H51.191V9.06149C51.191 10.0717 51.0954 11.0683 50.9043 12.0512C50.7268 13.0205 50.4606 13.9352 50.1057 14.7953C49.7507 15.6553 49.307 16.4335 48.7746 17.1297C48.2422 17.8123 47.621 18.3652 46.9111 18.7884L45.5801 17.1707C46.249 16.7748 46.8292 16.2833 47.3207 15.6963C47.8122 15.1092 48.2217 14.454 48.5494 13.7304C48.8907 13.0069 49.1364 12.2492 49.2866 11.4574C49.4504 10.6519 49.5323 9.85329 49.5323 9.06149V5.68266ZM49.9623 5.68266H51.6005V8.9591C51.6005 9.70995 51.6688 10.4676 51.8053 11.2321C51.9555 11.983 52.1807 12.6997 52.4811 13.3823C52.7814 14.0649 53.1568 14.6929 53.6074 15.2662C54.0579 15.8396 54.5971 16.3243 55.2251 16.7202L54.0374 18.3789C53.3275 17.9556 52.7132 17.4096 52.1944 16.7406C51.6893 16.058 51.2729 15.3004 50.9452 14.4676C50.6176 13.6212 50.3719 12.7338 50.2081 11.8055C50.0442 10.8635 49.9623 9.91473 49.9623 8.9591V5.68266ZM59.7916 3.96253H61.8394V22.6792H59.7916V3.96253ZM55.9828 4.33113H57.9896V21.7986H55.9828V4.33113ZM65.4828 12.7065H66.9572C68.1995 12.7065 69.2849 12.6997 70.2132 12.686C71.1552 12.6587 72.0221 12.611 72.8139 12.5427C73.6193 12.4608 74.4316 12.3516 75.2507 12.2151L75.4964 13.8942C74.65 14.0444 73.8104 14.1604 72.9777 14.2424C72.1586 14.3243 71.2644 14.3789 70.2951 14.4062C69.3395 14.4335 68.2268 14.4471 66.9572 14.4471H65.4828V12.7065ZM65.4828 5.23215H74.1244V6.95228H67.6125V13.3209H65.4828V5.23215ZM66.9367 8.93862H73.7763V10.6178H66.9367V8.93862ZM77.1756 3.98301H79.3053V15.2867H77.1756V3.98301ZM78.7319 8.73384H81.9469V10.5359H78.7319V8.73384ZM67.0187 16.1673H79.3053V22.6997H77.1756V17.8874H67.0187V16.1673Z" fill="black"/>
<path d="M3 3L19.9799 118.346C20.2405 120.116 21.7592 121.428 23.5484 121.428H86.4516C88.2408 121.428 89.7595 120.116 90.0201 118.346L107 3" stroke="black" stroke-width="4.80925" stroke-linecap="round"/>
<path fill-rule="evenodd" clip-rule="evenodd" d="M51.4024 33.3969C50.1152 34.1428 48.9575 35.1921 48.2717 35.9515C46.4015 38.8833 44.0975 40.6881 41.6322 41.6468C39.1524 42.6112 36.6459 42.6676 34.4681 42.3362C32.2945 42.0054 30.3767 41.2786 28.9944 40.5874C28.3033 40.2419 27.7127 39.8886 27.2682 39.5713C27.0521 39.4171 26.8277 39.2411 26.6349 39.0522C26.542 38.9612 26.4101 38.8223 26.2868 38.6442L26.2846 38.641L26.2846 38.641C26.2672 38.6158 26.2361 38.571 26.1989 38.5085C23.0861 34.7592 19.9073 33.5323 17.2907 33.362C14.5478 33.1835 12.2191 34.1545 10.9864 35.035C10.0832 35.6801 8.82815 35.4709 8.18307 34.5678C7.53798 33.6647 7.74715 32.4096 8.65028 31.7645C10.5436 30.4122 13.7747 29.1056 17.5517 29.3514C21.4141 29.6027 25.6568 31.4658 29.4641 36.1517L29.5582 36.2675C29.5717 36.2775 29.5867 36.2883 29.6031 36.3C29.8441 36.472 30.2478 36.7206 30.7918 36.9926C31.8795 37.5365 33.3948 38.1075 35.0728 38.3628C36.7467 38.6175 38.5105 38.5484 40.1755 37.9009C41.814 37.2637 43.4936 36.0147 44.9563 33.6744L45.0418 33.5376L45.148 33.4162C46.0414 32.3952 47.5791 30.9672 49.3873 29.9194C51.0936 28.9306 53.4592 28.043 55.8393 28.7616C57.8247 28.5062 59.738 29.2367 61.1777 30.0429C62.9378 31.0286 64.4366 32.3728 65.3101 33.3375L65.4194 33.4582L65.5078 33.5949C66.9122 35.7663 68.5277 36.9306 70.1146 37.527C71.7291 38.1337 73.4421 38.199 75.0683 37.9598C76.6974 37.7202 78.1671 37.1848 79.2204 36.6759C79.7474 36.4212 80.1372 36.1892 80.3683 36.0298L80.4031 36.0055L80.4867 35.9061C84.2005 31.489 88.3303 29.7433 92.0736 29.5079C95.7353 29.2777 98.8736 30.5011 100.72 31.7759C101.634 32.4064 101.863 33.6579 101.233 34.5713C100.602 35.4847 99.3508 35.7141 98.4374 35.0836C97.2503 34.2642 94.9923 33.3515 92.3258 33.5191C89.7825 33.6791 86.7112 34.83 83.71 38.3196C83.6741 38.3773 83.6445 38.4185 83.628 38.4416L83.6248 38.446C83.499 38.6217 83.3655 38.7572 83.2735 38.8442C83.0821 39.0255 82.8609 39.1929 82.6502 39.3383C82.2159 39.6378 81.6406 39.9702 80.9689 40.2947C79.6247 40.9442 77.7623 41.626 75.6531 41.9362C73.5409 42.2468 71.1092 42.1943 68.7008 41.2892C66.3071 40.3897 64.0587 38.6926 62.2295 35.9251C61.5692 35.2199 60.4545 34.2443 59.214 33.5496C57.8488 32.7851 56.7439 32.5849 55.9846 32.8295C55.3399 33.0372 54.667 32.9019 54.163 32.5248C53.4358 32.49 52.5031 32.759 51.4024 33.3969Z" fill="black"/>
</svg>
