<svg width="118" height="132" viewBox="0 0 118 132" fill="none" xmlns="http://www.w3.org/2000/svg">
<path d="M7 3.07227L23.9799 118.418C24.2405 120.188 25.7592 121.5 27.5484 121.5H90.4516C92.2408 121.5 93.7595 120.188 94.0201 118.418L111 3.07227" stroke="black" stroke-width="4.80925" stroke-linecap="round"/>
<path fill-rule="evenodd" clip-rule="evenodd" d="M55.4024 33.4691C54.1152 34.2151 52.9575 35.2644 52.2717 36.0238C50.4015 38.9555 48.0975 40.7603 45.6322 41.7191C43.1524 42.6834 40.6459 42.7399 38.4681 42.4085C36.2945 42.0777 34.3767 41.3509 32.9944 40.6597C32.3033 40.3142 31.7127 39.9609 31.2682 39.6436C31.0521 39.4894 30.8277 39.3133 30.6349 39.1245C30.542 39.0334 30.4101 38.8946 30.2868 38.7164L30.2846 38.7133L30.2846 38.7133C30.2672 38.6881 30.2361 38.6433 30.1989 38.5808C27.0861 34.8315 23.9073 33.6045 21.2907 33.4343C18.5478 33.2558 16.2191 34.2267 14.9864 35.1073C14.0832 35.7524 12.8282 35.5432 12.1831 34.6401C11.538 33.7369 11.7472 32.4818 12.6503 31.8368C14.5436 30.4844 17.7747 29.1779 21.5517 29.4236C25.4141 29.6749 29.6568 31.5381 33.4641 36.2239L33.5582 36.3397C33.5717 36.3497 33.5867 36.3606 33.6031 36.3723C33.8441 36.5443 34.2478 36.7929 34.7918 37.0649C35.8795 37.6087 37.3948 38.1797 39.0728 38.4351C40.7467 38.6898 42.5105 38.6207 44.1755 37.9732C45.814 37.336 47.4936 36.087 48.9563 33.7467L49.0418 33.6099L49.148 33.4884C50.0414 32.4675 51.5791 31.0395 53.3873 29.9917C55.0936 29.0029 57.4592 28.1153 59.8393 28.8339C61.8247 28.5785 63.738 29.3089 65.1777 30.1152C66.9378 31.1008 68.4366 32.4451 69.3101 33.4097L69.4194 33.5304L69.5078 33.6672C70.9122 35.8385 72.5277 37.0029 74.1146 37.5992C75.7291 38.2059 77.4421 38.2712 79.0683 38.0321C80.6974 37.7925 82.1671 37.257 83.2204 36.7482C83.7474 36.4935 84.1372 36.2614 84.3683 36.102L84.4031 36.0777L84.4867 35.9783C88.2005 31.5613 92.3303 29.8156 96.0736 29.5802C99.7353 29.35 102.874 30.5733 104.72 31.8482C105.634 32.4786 105.863 33.7302 105.233 34.6436C104.602 35.557 103.351 35.7863 102.437 35.1559C101.25 34.3365 98.9923 33.4238 96.3258 33.5914C93.7825 33.7513 90.7112 34.9022 87.71 38.3918C87.6741 38.4495 87.6445 38.4908 87.628 38.5138L87.6248 38.5183C87.499 38.694 87.3655 38.8294 87.2735 38.9165C87.0821 39.0977 86.8609 39.2652 86.6502 39.4106C86.2159 39.7101 85.6406 40.0425 84.9689 40.367C83.6247 41.0165 81.7623 41.6983 79.6531 42.0085C77.5409 42.3191 75.1092 42.2665 72.7008 41.3615C70.3071 40.462 68.0587 38.7648 66.2295 35.9974C65.5692 35.2922 64.4545 34.3166 63.214 33.6219C61.8488 32.8574 60.7439 32.6572 59.9846 32.9018C59.3399 33.1094 58.667 32.9741 58.163 32.5971C57.4358 32.5623 56.5031 32.8313 55.4024 33.4691Z" fill="black"/>
<path d="M115.5 28.1984L7 102.198" stroke="black" stroke-width="4" stroke-linecap="round"/>
<path d="M111 102.698L2.00001 28.6984" stroke="black" stroke-width="4" stroke-linecap="round"/>
</svg>
