<svg width="97" height="132" viewBox="0 0 97 132" fill="none" xmlns="http://www.w3.org/2000/svg">
<path d="M28.202 90.384C27.1021 90.384 26.1483 90.1863 25.3406 89.7911C24.5501 89.3786 23.8798 88.8974 23.3299 88.3475L24.9539 86.4915C25.332 86.9211 25.796 87.2648 26.3459 87.5226C26.8959 87.7804 27.463 87.9093 28.0473 87.9093C28.6488 87.9093 29.2159 87.7718 29.7486 87.4968C30.2986 87.2219 30.7712 86.775 31.1664 86.1564C31.5789 85.5377 31.8968 84.7128 32.1202 83.6817C32.3608 82.6505 32.4811 81.3874 32.4811 79.8923C32.4811 78.3112 32.3265 77.0137 32.0171 75.9998C31.7078 74.9687 31.2696 74.2125 30.7024 73.7313C30.1525 73.2329 29.4909 72.9838 28.7175 72.9838C28.1676 72.9838 27.6692 73.147 27.2224 73.4735C26.7756 73.7829 26.4233 74.2297 26.1655 74.814C25.9077 75.3983 25.7788 76.1029 25.7788 76.9278C25.7788 77.7355 25.8905 78.4229 26.1139 78.99C26.3545 79.5572 26.7068 79.9954 27.1708 80.3047C27.6348 80.5969 28.1934 80.743 28.8464 80.743C29.4479 80.743 30.0666 80.5539 30.7024 80.1758C31.3383 79.7978 31.9398 79.1791 32.5069 78.3198L32.6358 80.511C32.2749 80.9921 31.8539 81.4132 31.3727 81.7741C30.8915 82.135 30.3931 82.4185 29.8775 82.6248C29.362 82.8138 28.8464 82.9083 28.3309 82.9083C27.2825 82.9083 26.3545 82.6849 25.5468 82.2381C24.7563 81.7913 24.129 81.1296 23.665 80.2532C23.2182 79.3595 22.9948 78.2511 22.9948 76.9278C22.9948 75.6733 23.2526 74.582 23.7681 73.654C24.3009 72.7088 24.9969 71.9784 25.8562 71.4628C26.7154 70.9473 27.652 70.6895 28.666 70.6895C29.5768 70.6895 30.4275 70.8785 31.218 71.2566C32.0257 71.6175 32.7217 72.176 33.306 72.9322C33.9075 73.6884 34.3801 74.6421 34.7238 75.7936C35.0675 76.945 35.2394 78.3112 35.2394 79.8923C35.2394 81.7483 35.0503 83.3465 34.6723 84.687C34.2942 86.0103 33.77 87.093 33.0998 87.935C32.4296 88.7599 31.6734 89.3786 30.8313 89.7911C29.9892 90.1863 29.1128 90.384 28.202 90.384ZM43.5222 90.384C42.5426 90.384 41.6662 90.2637 40.8928 90.0231C40.1195 89.7825 39.4407 89.4645 38.8564 89.0693C38.2721 88.674 37.7565 88.2616 37.3097 87.8319L38.7275 85.8986C39.0884 86.2595 39.4836 86.5946 39.9133 86.9039C40.3429 87.1961 40.8241 87.4367 41.3568 87.6257C41.9068 87.8147 42.5169 87.9093 43.1871 87.9093C43.8917 87.9093 44.5276 87.7546 45.0947 87.4453C45.6618 87.1187 46.1086 86.6547 46.4351 86.0532C46.7617 85.4346 46.9249 84.7042 46.9249 83.8621C46.9249 82.6248 46.5898 81.6624 45.9196 80.975C45.2665 80.2875 44.3987 79.9438 43.316 79.9438C42.7145 79.9438 42.1989 80.0298 41.7693 80.2016C41.3397 80.3735 40.8499 80.6398 40.2999 81.0007L38.8306 80.0469L39.3977 71.0246H49.0129V73.5509H41.9755L41.5373 78.3972C41.9497 78.1909 42.3622 78.0363 42.7746 77.9331C43.1871 77.8128 43.6425 77.7527 44.1409 77.7527C45.2064 77.7527 46.1773 77.9675 47.0538 78.3972C47.9303 78.8268 48.6263 79.4884 49.1418 80.3821C49.6574 81.2585 49.9152 82.3928 49.9152 83.7848C49.9152 85.1768 49.6144 86.3712 49.0129 87.3679C48.4115 88.3475 47.6209 89.0951 46.6414 89.6106C45.679 90.1262 44.6393 90.384 43.5222 90.384ZM56.1357 77.8816C55.4483 77.8816 54.8125 77.7269 54.2282 77.4176C53.6439 77.0911 53.1799 76.6356 52.8362 76.0513C52.4924 75.467 52.3206 74.7968 52.3206 74.0407C52.3206 73.2501 52.4924 72.5713 52.8362 72.0042C53.1799 71.4199 53.6439 70.9645 54.2282 70.6379C54.8125 70.3114 55.4483 70.1482 56.1357 70.1482C56.8403 70.1482 57.4762 70.3114 58.0433 70.6379C58.6276 70.9645 59.0916 71.4199 59.4353 72.0042C59.7962 72.5713 59.9767 73.2501 59.9767 74.0407C59.9767 74.7968 59.7962 75.467 59.4353 76.0513C59.0916 76.6356 58.6276 77.0911 58.0433 77.4176C57.4762 77.7269 56.8403 77.8816 56.1357 77.8816ZM56.1357 76.3091C56.7716 76.3091 57.2872 76.1029 57.6824 75.6905C58.0777 75.2608 58.2753 74.7109 58.2753 74.0407C58.2753 73.3532 58.0777 72.8033 57.6824 72.3909C57.2872 71.9612 56.7716 71.7464 56.1357 71.7464C55.5171 71.7464 55.0101 71.9612 54.6148 72.3909C54.2368 72.8033 54.0477 73.3532 54.0477 74.0407C54.0477 74.7109 54.2368 75.2608 54.6148 75.6905C55.0101 76.1029 55.5171 76.3091 56.1357 76.3091ZM70.391 90.384C68.7756 90.384 67.3148 89.9973 66.0088 89.224C64.7199 88.4506 63.6973 87.3421 62.9412 85.8986C62.2022 84.4378 61.8327 82.6677 61.8327 80.5883C61.8327 79.0416 62.0475 77.6582 62.4772 76.438C62.924 75.2179 63.5427 74.1781 64.3332 73.3189C65.1237 72.4596 66.0431 71.8066 67.0914 71.3597C68.1397 70.9129 69.274 70.6895 70.4941 70.6895C71.6456 70.6895 72.6767 70.9387 73.5875 71.4371C74.5155 71.9183 75.2631 72.4596 75.8302 73.0611L74.1289 74.9944C73.6477 74.4789 73.1149 74.0836 72.5306 73.8087C71.9463 73.5165 71.2847 73.3704 70.5457 73.3704C69.4458 73.3704 68.4749 73.6626 67.6328 74.2469C66.8079 74.814 66.1548 75.6303 65.6736 76.6958C65.2096 77.7441 64.9776 79.0072 64.9776 80.4852C64.9776 81.9631 65.201 83.2434 65.6479 84.3261C66.0947 85.4088 66.722 86.2423 67.5297 86.8266C68.3546 87.4109 69.3255 87.703 70.4426 87.703C71.3019 87.703 72.058 87.5312 72.7111 87.1875C73.3641 86.8438 73.9656 86.3626 74.5155 85.7439L76.2427 87.6257C75.4693 88.5022 74.5929 89.181 73.6133 89.6622C72.6509 90.1434 71.5768 90.384 70.391 90.384Z" fill="black"/>
<rect x="1.93336" y="1.93336" width="92.8011" height="127.602" rx="7.08898" stroke="black" stroke-width="3.86671"/>
<path d="M2.57812 28.3558H92.8014" stroke="black" stroke-width="5.15562" stroke-linecap="round"/>
<circle cx="83.1339" cy="16.1113" r="5.80007" stroke="black" stroke-width="2.57781"/>
</svg>
