<svg width="97" height="132" viewBox="0 0 97 132" fill="none" xmlns="http://www.w3.org/2000/svg">
<path d="M31.3813 61.4791H34.6335V63.2606H31.3813V61.4791ZM31.3813 65.5392H34.6335V67.3413H31.3813V65.5392ZM29.8691 58.7862H32.0234V69.9928H29.8691V58.7862ZM19.5947 70.8214H32.0234V77.7193H29.8691V72.5614H19.5947V70.8214ZM22.5155 59.8634C23.4821 59.8634 24.3452 60.0567 25.1048 60.4434C25.8643 60.8301 26.4581 61.3686 26.8862 62.0591C27.3281 62.7358 27.5491 63.516 27.5491 64.3999C27.5491 65.2975 27.3281 66.0915 26.8862 66.782C26.4581 67.4587 25.8643 67.9904 25.1048 68.377C24.3452 68.7637 23.4821 68.9571 22.5155 68.9571C21.5626 68.9571 20.7064 68.7637 19.9469 68.377C19.1873 67.9904 18.5866 67.4587 18.1447 66.782C17.7166 66.0915 17.5025 65.2975 17.5025 64.3999C17.5025 63.516 17.7166 62.7358 18.1447 62.0591C18.5866 61.3686 19.1873 60.8301 19.9469 60.4434C20.7064 60.0567 21.5626 59.8634 22.5155 59.8634ZM22.5362 61.707C21.97 61.707 21.4659 61.8174 21.024 62.0384C20.5959 62.2594 20.2507 62.577 19.9883 62.9913C19.7397 63.3918 19.6154 63.8613 19.6154 64.3999C19.6154 64.9522 19.7397 65.4356 19.9883 65.8499C20.2507 66.2504 20.5959 66.568 21.024 66.8027C21.4659 67.0237 21.97 67.1342 22.5362 67.1342C23.0886 67.1342 23.5857 67.0237 24.0276 66.8027C24.4695 66.568 24.8148 66.2504 25.0633 65.8499C25.3119 65.4356 25.4362 64.9522 25.4362 64.3999C25.4362 63.8613 25.3119 63.3918 25.0633 62.9913C24.8148 62.577 24.4695 62.2594 24.0276 62.0384C23.5857 61.8174 23.0886 61.707 22.5362 61.707ZM40.9083 76.29C40.1074 76.29 39.3962 76.1933 38.7747 76C38.1671 75.8067 37.6285 75.5512 37.159 75.2336C36.6895 74.9021 36.2821 74.55 35.9369 74.1771L37.0969 72.6442C37.5526 73.0862 38.0705 73.4728 38.6505 73.8043C39.2305 74.1357 39.914 74.3014 40.7012 74.3014C41.2812 74.3014 41.7853 74.2047 42.2134 74.0114C42.6415 73.8043 42.9729 73.5143 43.2077 73.1414C43.4562 72.7685 43.5805 72.3128 43.5805 71.7742C43.5805 71.2218 43.4424 70.7385 43.1662 70.3242C42.9038 69.8961 42.4412 69.5716 41.7784 69.3506C41.1293 69.1159 40.2317 68.9985 39.0855 68.9985V67.217C40.0936 67.217 40.8807 67.1066 41.4469 66.8856C42.0269 66.6508 42.4412 66.3332 42.6898 65.9327C42.9522 65.5323 43.0834 65.0765 43.0834 64.5656C43.0834 63.9027 42.8762 63.3779 42.4619 62.9913C42.0476 62.5908 41.4745 62.3905 40.7426 62.3905C40.1626 62.3905 39.6171 62.5217 39.1062 62.7841C38.609 63.0327 38.1395 63.371 37.6976 63.7991L36.4547 62.3077C37.0623 61.7553 37.7252 61.3134 38.4433 60.982C39.1614 60.6367 39.9555 60.4641 40.8255 60.4641C41.7369 60.4641 42.5448 60.6229 43.2491 60.9405C43.9534 61.2443 44.5058 61.6863 44.9063 62.2663C45.3067 62.8463 45.507 63.5575 45.507 64.3999C45.507 65.2699 45.2653 66.0087 44.782 66.6163C44.3124 67.2239 43.6772 67.6797 42.8762 67.9835V68.0663C43.4562 68.2182 43.981 68.4668 44.4505 68.8121C44.9339 69.1435 45.3136 69.5716 45.5898 70.0964C45.866 70.6211 46.0041 71.2218 46.0041 71.8985C46.0041 72.81 45.7694 73.5971 45.2998 74.26C44.8441 74.909 44.2296 75.4131 43.4562 75.7721C42.6829 76.1174 41.8336 76.29 40.9083 76.29ZM53.095 76.29C52.1007 76.29 51.2307 75.9931 50.4849 75.3993C49.7392 74.8055 49.1592 73.9216 48.7449 72.7478C48.3444 71.5602 48.1442 70.0825 48.1442 68.3149C48.1442 66.5473 48.3444 65.0834 48.7449 63.9234C49.1592 62.7634 49.7392 61.9003 50.4849 61.3341C51.2307 60.7541 52.1007 60.4641 53.095 60.4641C54.0893 60.4641 54.9524 60.7541 55.6843 61.3341C56.4162 61.9141 56.9824 62.7841 57.3829 63.9441C57.7972 65.0903 58.0043 66.5473 58.0043 68.3149C58.0043 70.0825 57.7972 71.5602 57.3829 72.7478C56.9824 73.9216 56.4162 74.8055 55.6843 75.3993C54.9524 75.9931 54.0893 76.29 53.095 76.29ZM53.095 74.3843C53.6059 74.3843 54.0616 74.184 54.4621 73.7835C54.8626 73.3831 55.1733 72.7409 55.3943 71.8571C55.6152 70.9595 55.7257 69.7787 55.7257 68.3149C55.7257 66.8511 55.6152 65.6842 55.3943 64.8141C55.1733 63.9441 54.8626 63.3158 54.4621 62.9291C54.0616 62.5425 53.6059 62.3491 53.095 62.3491C52.584 62.3491 52.1283 62.5425 51.7278 62.9291C51.3273 63.3158 51.0097 63.9441 50.7749 64.8141C50.554 65.6842 50.4435 66.8511 50.4435 68.3149C50.4435 69.7787 50.554 70.9595 50.7749 71.8571C51.0097 72.7409 51.3273 73.3831 51.7278 73.7835C52.1283 74.184 52.584 74.3843 53.095 74.3843ZM62.858 66.2435C62.3056 66.2435 61.7946 66.1192 61.3251 65.8706C60.8556 65.6082 60.4827 65.2423 60.2065 64.7727C59.9303 64.3032 59.7922 63.7646 59.7922 63.157C59.7922 62.5217 59.9303 61.9763 60.2065 61.5205C60.4827 61.051 60.8556 60.6851 61.3251 60.4227C61.7946 60.1603 62.3056 60.0291 62.858 60.0291C63.4242 60.0291 63.9351 60.1603 64.3909 60.4227C64.8604 60.6851 65.2333 61.051 65.5094 61.5205C65.7995 61.9763 65.9445 62.5217 65.9445 63.157C65.9445 63.7646 65.7995 64.3032 65.5094 64.7727C65.2333 65.2423 64.8604 65.6082 64.3909 65.8706C63.9351 66.1192 63.4242 66.2435 62.858 66.2435ZM62.858 64.9799C63.3689 64.9799 63.7832 64.8141 64.1009 64.4827C64.4185 64.1375 64.5773 63.6956 64.5773 63.157C64.5773 62.6046 64.4185 62.1627 64.1009 61.8313C63.7832 61.486 63.3689 61.3134 62.858 61.3134C62.3608 61.3134 61.9535 61.486 61.6358 61.8313C61.332 62.1627 61.1801 62.6046 61.1801 63.157C61.1801 63.6956 61.332 64.1375 61.6358 64.4827C61.9535 64.8141 62.3608 64.9799 62.858 64.9799ZM74.3131 76.29C73.015 76.29 71.8412 75.9793 70.7917 75.3578C69.7559 74.7364 68.9343 73.8457 68.3266 72.6857C67.7328 71.5119 67.4359 70.0895 67.4359 68.4185C67.4359 67.1756 67.6085 66.0639 67.9538 65.0834C68.3128 64.103 68.81 63.2675 69.4452 62.577C70.0805 61.8865 70.8193 61.3617 71.6617 61.0027C72.5041 60.6436 73.4155 60.4641 74.396 60.4641C75.3212 60.4641 76.1498 60.6643 76.8817 61.0648C77.6275 61.4515 78.2282 61.8865 78.6839 62.3698L77.3167 63.9234C76.9301 63.5091 76.502 63.1915 76.0324 62.9706C75.5629 62.7358 75.0312 62.6184 74.4374 62.6184C73.5536 62.6184 72.7733 62.8532 72.0967 63.3227C71.4338 63.7784 70.909 64.4344 70.5224 65.2906C70.1495 66.133 69.9631 67.148 69.9631 68.3356C69.9631 69.5233 70.1426 70.5521 70.5017 71.4221C70.8607 72.2921 71.3648 72.9619 72.0138 73.4314C72.6767 73.9009 73.4569 74.1357 74.3546 74.1357C75.045 74.1357 75.6527 73.9976 76.1774 73.7214C76.7022 73.4452 77.1855 73.0585 77.6275 72.5614L79.0153 74.0735C78.3939 74.7778 77.6896 75.3233 76.9024 75.71C76.1291 76.0967 75.266 76.29 74.3131 76.29ZM37.3543 92.2528H39.5294V95.5878H37.3543V92.2528ZM29.8971 91.5278H47.0073V93.2678H29.8971V91.5278ZM38.4108 94.9457C40.4546 94.9457 42.0496 95.2426 43.1958 95.8364C44.3559 96.4164 44.9359 97.245 44.9359 98.3221C44.9359 99.3993 44.3559 100.228 43.1958 100.808C42.0496 101.388 40.4546 101.678 38.4108 101.678C36.3808 101.678 34.7857 101.388 33.6257 100.808C32.4795 100.228 31.9064 99.3993 31.9064 98.3221C31.9064 97.245 32.4795 96.4164 33.6257 95.8364C34.7857 95.2426 36.3808 94.9457 38.4108 94.9457ZM38.4108 96.6235C37.4993 96.6235 36.7191 96.6926 36.07 96.8307C35.421 96.955 34.9238 97.1414 34.5786 97.39C34.2472 97.6385 34.0814 97.9493 34.0814 98.3221C34.0814 98.695 34.2472 99.0126 34.5786 99.275C34.9238 99.5236 35.421 99.71 36.07 99.8343C36.7191 99.9586 37.4993 100.021 38.4108 100.021C39.3498 100.021 40.137 99.9586 40.7722 99.8343C41.4213 99.71 41.9115 99.5236 42.243 99.275C42.5744 99.0126 42.7401 98.695 42.7401 98.3221C42.7401 97.9493 42.5744 97.6385 42.243 97.39C41.9115 97.1414 41.4213 96.955 40.7722 96.8307C40.137 96.6926 39.3498 96.6235 38.4108 96.6235ZM37.0022 84.4434H38.9287V84.9612C38.9287 85.5551 38.8113 86.1144 38.5765 86.6391C38.3417 87.1501 38.0034 87.6265 37.5615 88.0684C37.1196 88.4965 36.5948 88.8832 35.9872 89.2284C35.3796 89.5737 34.696 89.8568 33.9364 90.0777C33.1907 90.2987 32.3829 90.4575 31.5128 90.5542L30.7464 88.8556C31.4921 88.7865 32.1826 88.6691 32.8179 88.5034C33.4669 88.3239 34.0469 88.1099 34.5579 87.8613C35.0688 87.6127 35.5038 87.3365 35.8629 87.0327C36.222 86.7151 36.4981 86.3836 36.6915 86.0384C36.8986 85.6793 37.0022 85.3203 37.0022 84.9612V84.4434ZM37.9758 84.4434H39.9022V84.9612C39.9022 85.3341 39.9989 85.7001 40.1922 86.0591C40.3856 86.4044 40.6618 86.7289 41.0208 87.0327C41.3799 87.3365 41.8149 87.6127 42.3258 87.8613C42.8506 88.1099 43.4306 88.3239 44.0659 88.5034C44.7149 88.6691 45.4123 88.7865 46.158 88.8556L45.3916 90.5542C44.5216 90.4575 43.7068 90.2987 42.9473 90.0777C42.2015 89.8568 41.518 89.5806 40.8965 89.2492C40.2889 88.9039 39.7641 88.5172 39.3222 88.0891C38.8941 87.6472 38.5627 87.1639 38.3279 86.6391C38.0932 86.1005 37.9758 85.5413 37.9758 84.9612V84.4434ZM31.4507 83.6148H45.4537V85.3341H31.4507V83.6148ZM53.5515 83.8012H55.3537V85.6448C55.3537 86.8877 55.1465 88.0477 54.7322 89.1249C54.3179 90.1882 53.7103 91.1204 52.9093 91.9213C52.1222 92.7085 51.1555 93.3161 50.0093 93.7442L48.87 91.9835C49.8919 91.6382 50.7481 91.148 51.4386 90.5127C52.1291 89.8637 52.6539 89.118 53.0129 88.2756C53.372 87.4332 53.5515 86.5563 53.5515 85.6448V83.8012ZM53.9865 83.8012H55.7472V85.5413C55.7472 86.4113 55.913 87.2398 56.2444 88.027C56.5896 88.8141 57.0937 89.5046 57.7565 90.0985C58.4194 90.6923 59.2273 91.148 60.1801 91.4656L59.0408 93.1642C57.9637 92.7775 57.0453 92.2113 56.2858 91.4656C55.5263 90.7199 54.9532 89.843 54.5665 88.8349C54.1798 87.8268 53.9865 86.7289 53.9865 85.5413V83.8012ZM62.4587 82.7862H64.6338V93.9306H62.4587V82.7862ZM58.3366 94.4485C60.3113 94.4485 61.8649 94.7661 62.9973 95.4014C64.1435 96.0366 64.7166 96.9273 64.7166 98.0735C64.7166 99.2198 64.1435 100.104 62.9973 100.725C61.8649 101.36 60.3113 101.678 58.3366 101.678C56.3618 101.678 54.8013 101.36 53.6551 100.725C52.5089 100.104 51.9358 99.2198 51.9358 98.0735C51.9358 96.9273 52.5089 96.0366 53.6551 95.4014C54.8013 94.7661 56.3618 94.4485 58.3366 94.4485ZM58.3366 96.1471C57.4389 96.1471 56.6725 96.223 56.0372 96.375C55.4158 96.5131 54.9394 96.7271 54.6079 97.0171C54.2765 97.3071 54.1108 97.6593 54.1108 98.0735C54.1108 98.474 54.2765 98.8193 54.6079 99.1093C54.9394 99.3993 55.4158 99.6202 56.0372 99.7721C56.6725 99.924 57.4389 100 58.3366 100C59.2342 100 59.9937 99.924 60.6152 99.7721C61.2366 99.6202 61.713 99.3993 62.0445 99.1093C62.3897 98.8193 62.5623 98.474 62.5623 98.0735C62.5623 97.6593 62.3897 97.3071 62.0445 97.0171C61.713 96.7271 61.2366 96.5131 60.6152 96.375C59.9937 96.223 59.2342 96.1471 58.3366 96.1471ZM58.6473 86.5356H62.8523V88.317H58.6473V86.5356Z" fill="black"/>
<rect x="1.93336" y="1.93336" width="92.8011" height="127.602" rx="7.08898" stroke="black" stroke-width="3.86671"/>
<path d="M2.57812 28.3558H92.8014" stroke="black" stroke-width="5.15562" stroke-linecap="round"/>
<circle cx="83.1339" cy="16.1113" r="5.80007" stroke="black" stroke-width="2.57781"/>
</svg>
