<svg width="97" height="132" viewBox="0 0 97 132" fill="none" xmlns="http://www.w3.org/2000/svg">
<path d="M30.391 73.8855H33.9258V75.8218H30.391V73.8855ZM30.391 78.2985H33.9258V80.2573H30.391V78.2985ZM28.7474 70.9586H31.0889V83.1392H28.7474V70.9586ZM17.5799 84.0398H31.0889V91.5373H28.7474V85.9311H17.5799V84.0398ZM20.7545 72.1294C21.8052 72.1294 22.7433 72.3395 23.5689 72.7598C24.3944 73.1801 25.0399 73.7655 25.5052 74.516C25.9855 75.2514 26.2257 76.0995 26.2257 77.0602C26.2257 78.0358 25.9855 78.8989 25.5052 79.6494C25.0399 80.3849 24.3944 80.9628 23.5689 81.383C22.7433 81.8033 21.8052 82.0135 20.7545 82.0135C19.7188 82.0135 18.7882 81.8033 17.9626 81.383C17.1371 80.9628 16.4842 80.3849 16.0038 79.6494C15.5385 78.8989 15.3059 78.0358 15.3059 77.0602C15.3059 76.0995 15.5385 75.2514 16.0038 74.516C16.4842 73.7655 17.1371 73.1801 17.9626 72.7598C18.7882 72.3395 19.7188 72.1294 20.7545 72.1294ZM20.777 74.1332C20.1616 74.1332 19.6138 74.2533 19.1334 74.4934C18.6681 74.7336 18.2929 75.0788 18.0077 75.5291C17.7375 75.9644 17.6024 76.4748 17.6024 77.0602C17.6024 77.6606 17.7375 78.1859 18.0077 78.6362C18.2929 79.0715 18.6681 79.4167 19.1334 79.6719C19.6138 79.9121 20.1616 80.0321 20.777 80.0321C21.3774 80.0321 21.9178 79.9121 22.3981 79.6719C22.8784 79.4167 23.2537 79.0715 23.5239 78.6362C23.794 78.1859 23.9291 77.6606 23.9291 77.0602C23.9291 76.4748 23.794 75.9644 23.5239 75.5291C23.2537 75.0788 22.8784 74.7336 22.3981 74.4934C21.9178 74.2533 21.3774 74.1332 20.777 74.1332ZM42.3447 89.6686V78.8614C42.3447 78.4111 42.3597 77.8782 42.3897 77.2628C42.4197 76.6324 42.4422 76.092 42.4573 75.6417H42.3672C42.1571 76.062 41.9394 76.4898 41.7143 76.9251C41.5041 77.3604 41.279 77.7881 41.0388 78.2084L37.7966 83.1842H46.8702V85.2106H35.1624V83.4769L41.7593 73.075H44.7763V89.6686H42.3447ZM53.992 89.9838C52.9113 89.9838 51.9656 89.6611 51.1551 89.0156C50.3446 88.3702 49.7141 87.4096 49.2638 86.1337C48.8285 84.8429 48.6109 83.2368 48.6109 81.3155C48.6109 79.3942 48.8285 77.8032 49.2638 76.5423C49.7141 75.2815 50.3446 74.3433 51.1551 73.7279C51.9656 73.0975 52.9113 72.7823 53.992 72.7823C55.0727 72.7823 56.0108 73.0975 56.8064 73.7279C57.6019 74.3584 58.2173 75.304 58.6526 76.5648C59.1029 77.8107 59.3281 79.3942 59.3281 81.3155C59.3281 83.2368 59.1029 84.8429 58.6526 86.1337C58.2173 87.4096 57.6019 88.3702 56.8064 89.0156C56.0108 89.6611 55.0727 89.9838 53.992 89.9838ZM53.992 87.9124C54.5474 87.9124 55.0427 87.6948 55.478 87.2595C55.9133 86.8242 56.251 86.1262 56.4912 85.1656C56.7313 84.1899 56.8514 82.9066 56.8514 81.3155C56.8514 79.7244 56.7313 78.4561 56.4912 77.5105C56.251 76.5648 55.9133 75.8819 55.478 75.4616C55.0427 75.0413 54.5474 74.8312 53.992 74.8312C53.4366 74.8312 52.9413 75.0413 52.506 75.4616C52.0707 75.8819 51.7255 76.5648 51.4703 77.5105C51.2301 78.4561 51.1101 79.7244 51.1101 81.3155C51.1101 82.9066 51.2301 84.1899 51.4703 85.1656C51.7255 86.1262 52.0707 86.8242 52.506 87.2595C52.9413 87.6948 53.4366 87.9124 53.992 87.9124ZM64.6036 79.064C64.0032 79.064 63.4478 78.9289 62.9375 78.6587C62.4272 78.3735 62.0219 77.9758 61.7217 77.4654C61.4215 76.9551 61.2714 76.3697 61.2714 75.7093C61.2714 75.0188 61.4215 74.4259 61.7217 73.9306C62.0219 73.4202 62.4272 73.0225 62.9375 72.7373C63.4478 72.4521 64.0032 72.3095 64.6036 72.3095C65.219 72.3095 65.7744 72.4521 66.2697 72.7373C66.7801 73.0225 67.1853 73.4202 67.4855 73.9306C67.8007 74.4259 67.9584 75.0188 67.9584 75.7093C67.9584 76.3697 67.8007 76.9551 67.4855 77.4654C67.1853 77.9758 66.7801 78.3735 66.2697 78.6587C65.7744 78.9289 65.219 79.064 64.6036 79.064ZM64.6036 77.6906C65.159 77.6906 65.6093 77.5105 65.9545 77.1502C66.2997 76.775 66.4724 76.2946 66.4724 75.7093C66.4724 75.1089 66.2997 74.6285 65.9545 74.2683C65.6093 73.893 65.159 73.7054 64.6036 73.7054C64.0633 73.7054 63.6205 73.893 63.2752 74.2683C62.945 74.6285 62.7799 75.1089 62.7799 75.7093C62.7799 76.2946 62.945 76.775 63.2752 77.1502C63.6205 77.5105 64.0633 77.6906 64.6036 77.6906ZM77.0544 89.9838C75.6435 89.9838 74.3676 89.6461 73.2269 88.9706C72.1011 88.2952 71.208 87.327 70.5476 86.0662C69.9022 84.7903 69.5794 83.2443 69.5794 81.4281C69.5794 80.0772 69.7671 78.8689 70.1423 77.8032C70.5326 76.7374 71.0729 75.8293 71.7634 75.0788C72.4539 74.3283 73.2569 73.7579 74.1725 73.3677C75.0881 72.9774 76.0788 72.7823 77.1445 72.7823C78.1502 72.7823 79.0508 72.9999 79.8463 73.4352C80.6568 73.8555 81.3098 74.3283 81.8051 74.8537L80.3191 76.5423C79.8988 76.092 79.4335 75.7468 78.9232 75.5066C78.4128 75.2514 77.835 75.1239 77.1895 75.1239C76.2289 75.1239 75.3808 75.379 74.6453 75.8894C73.9248 76.3847 73.3545 77.0977 72.9342 78.0283C72.5289 78.9439 72.3263 80.0472 72.3263 81.338C72.3263 82.6289 72.5214 83.7471 72.9117 84.6928C73.3019 85.6384 73.8498 86.3664 74.5553 86.8767C75.2757 87.3871 76.1238 87.6422 77.0995 87.6422C77.85 87.6422 78.5104 87.4921 79.0808 87.1919C79.6512 86.8917 80.1765 86.4714 80.6568 85.9311L82.1653 87.5747C81.4899 88.3402 80.7244 88.9331 79.8688 89.3534C79.0282 89.7736 78.0901 89.9838 77.0544 89.9838Z" fill="black"/>
<rect x="1.93336" y="1.93336" width="92.8011" height="127.602" rx="7.08898" stroke="black" stroke-width="3.86671"/>
<path d="M2.57812 28.3558H92.8014" stroke="black" stroke-width="5.15562" stroke-linecap="round"/>
<circle cx="83.1339" cy="16.1113" r="5.80007" stroke="black" stroke-width="2.57781"/>
</svg>
