<svg width="88" height="88" viewBox="0 0 88 88" fill="none" xmlns="http://www.w3.org/2000/svg">
<rect x="1.53" y="0.881559" width="85.5878" height="85.5878" rx="16.7496" fill="#5F4C32" stroke="#5F4C32" stroke-width="1.76312"/>
<g clip-path="url(#clip0_4323_330)">
<rect width="49" height="40" transform="translate(21 24)" fill="#5F4C32"/>
<path d="M70.0005 34.7681V36.2861C69.7066 38.0183 69.0184 39.5333 67.8932 40.8837C67.3618 41.5205 66.6356 42.0169 66.1757 42.6914V59.4812C66.0159 61.5801 64.5344 63.3712 62.4621 63.8586C51.4279 64.1468 40.3404 63.8963 29.2879 63.9853C26.931 63.765 25.1389 61.9755 24.8435 59.6653L24.8405 42.6914C24.7917 42.4394 23.4184 41.2383 23.123 40.8837C21.9947 39.5348 21.3065 38.0183 21.0127 36.2861C21.0416 35.8545 20.9731 35.3822 21.0127 34.9582C21.7131 27.5253 32.0743 24.4033 38.3748 24.1423C42.7796 23.9597 48.1391 23.9461 52.5379 24.1483C58.6252 24.429 69.2224 27.5736 70.0005 34.7696V34.7681ZM38.6945 26.0707C35.8884 26.1582 32.9772 26.6576 30.3644 27.6777C24.4217 29.9969 19.8387 35.1649 25.6048 40.6982C25.9991 41.0769 26.6554 41.3334 26.7483 41.9355V59.0994C26.8746 60.8709 27.8765 61.9317 29.6747 62.0811C36.0467 61.7521 42.8771 62.5232 49.1958 62.0871C50.9285 61.9679 52.0126 61.0188 52.2044 59.2835L52.2121 41.9355C52.3049 41.3319 52.9612 41.0769 53.3555 40.6982C58.7607 35.512 55.0958 30.5205 49.3998 28.0187C46.1598 26.5958 42.2406 25.9605 38.696 26.0722L38.6945 26.0707ZM53.2566 62.0841H61.5334C61.8196 62.0841 62.1317 61.8457 62.2018 61.8215C62.2642 61.8004 62.4134 61.8578 62.5611 61.7838C63.6269 61.2527 64.236 60.1949 64.2649 59.0059V41.8404C64.3608 41.258 65.2728 40.8128 65.6961 40.413C67.2476 38.9508 68.5312 36.4732 67.9039 34.3365C67.8567 34.1751 67.7105 34.1992 67.7075 34.1404C67.6055 32.298 65.1206 30.1764 63.5812 29.2288C59.9423 26.9866 54.4731 25.8866 50.1459 26.0435C50.0302 26.048 49.7896 25.9726 49.8125 26.1371L51.7979 26.9308C57.4315 29.9697 60.4889 36.3283 55.3593 41.5507C55.0928 41.8223 54.1762 42.3866 54.1183 42.6914C54.0148 48.2518 54.2508 53.8273 54.1107 59.3861C54.0894 60.207 54.0194 60.5812 53.6509 61.3085C53.5931 61.4232 53.22 62.0539 53.255 62.0856L53.2566 62.0841Z" fill="white"/>
<path d="M44.8107 39.6248C45.6771 39.5448 46.1887 40.6327 45.6025 41.265L34.7434 52.0296C33.7354 52.7871 32.5904 51.6539 33.3548 50.6535L44.1652 39.9341C44.322 39.7968 44.6098 39.6429 44.8123 39.6248H44.8107Z" fill="white"/>
<path d="M46.0563 46.359C47.0856 46.19 47.489 47.204 46.8846 48.0369C46.4095 48.6918 43.576 51.4999 42.9137 51.9737C42.466 52.2936 42.0732 52.4399 41.5844 52.0748C41.0957 51.7096 41.1368 51.1634 41.4459 50.7077C41.7808 50.2143 45.0879 46.9278 45.598 46.5717C45.7487 46.4661 45.869 46.3907 46.0563 46.359Z" fill="white"/>
<path d="M36.6789 39.6248C37.5711 39.5358 38.0112 40.5121 37.4691 41.265C37.0489 41.849 33.9931 44.8789 33.4023 45.2953C32.3441 46.0438 31.295 45.0147 31.9726 43.972C32.3365 43.4107 35.3162 40.5196 35.9374 40.0307C36.1308 39.8798 36.4338 39.649 36.6789 39.6233V39.6248Z" fill="white"/>
<path d="M39.169 53.0964C40.6109 52.7267 40.9002 54.72 39.6958 54.9493C38.394 55.1968 38.1245 53.365 39.169 53.0964Z" fill="white"/>
<path d="M39.2608 36.9705C40.5595 36.7246 40.8168 38.5036 39.8652 38.8039C38.4218 39.2611 38.0244 37.2044 39.2608 36.9705Z" fill="white"/>
<path d="M64.0425 34.7947C64.5617 35.3093 64.1049 37.9122 63.9268 38.6576C63.3436 41.093 62.0357 43.1602 60.4538 45.0795L60.4355 59.3826C60.2985 60.5369 58.4576 60.4479 58.517 59.289L58.5246 44.3055C58.5886 43.9584 59.4032 43.2266 59.6681 42.875C60.7598 41.4295 61.8332 39.3864 62.1271 37.5395C62.2276 36.9102 62.2124 35.3741 62.4438 34.9381C62.6752 34.502 63.706 34.4643 64.0425 34.7962V34.7947Z" fill="white"/>
</g>
<defs>
<clipPath id="clip0_4323_330">
<rect width="49" height="40" fill="white" transform="translate(21 24)"/>
</clipPath>
</defs>
</svg>
