<svg width="88" height="88" viewBox="0 0 88 88" fill="none" xmlns="http://www.w3.org/2000/svg">
<rect x="1.53" y="0.881559" width="85.5878" height="85.5878" rx="16.7496" stroke="#D9D9D9" stroke-width="1.76312"/>
<g clip-path="url(#clip0_4323_389)">
<path d="M72.0005 34.8062V36.3241C71.7066 38.0564 71.0184 39.5713 69.8932 40.9218C69.3618 41.5586 68.6356 42.055 68.1757 42.7295V59.5193C68.0159 61.6182 66.5344 63.4093 64.4621 63.8967C53.4279 64.1849 42.3404 63.9344 31.2879 64.0234C28.931 63.8031 27.1389 62.0135 26.8435 59.7034L26.8405 42.7295C26.7917 42.4775 25.4184 41.2764 25.123 40.9218C23.9947 39.5729 23.3065 38.0564 23.0127 36.3241C23.0416 35.8926 22.9731 35.4203 23.0127 34.9963C23.7131 27.5634 34.0743 24.4414 40.3748 24.1803C44.7796 23.9978 50.1391 23.9842 54.5379 24.1864C60.6252 24.467 71.2224 27.6116 72.0005 34.8077V34.8062ZM40.6945 26.1088C37.8884 26.1963 34.9772 26.6957 32.3644 27.7158C26.4217 30.035 21.8387 35.203 27.6048 40.7362C27.9991 41.115 28.6554 41.3715 28.7483 41.9736V59.1375C28.8746 60.909 29.8765 61.9698 31.6747 62.1192C38.0467 61.7902 44.8771 62.5613 51.1958 62.1252C52.9285 62.006 54.0126 61.0569 54.2044 59.3216L54.2121 41.9736C54.3049 41.37 54.9612 41.115 55.3555 40.7362C60.7607 35.5501 57.0958 30.5586 51.3998 28.0568C48.1598 26.6339 44.2406 25.9986 40.696 26.1103L40.6945 26.1088ZM55.2566 62.1222H63.5334C63.8196 62.1222 64.1317 61.8838 64.2018 61.8596C64.2642 61.8385 64.4134 61.8958 64.5611 61.8219C65.6269 61.2908 66.236 60.233 66.2649 59.044V41.8785C66.3608 41.296 67.2728 40.8509 67.6961 40.4511C69.2476 38.9889 70.5312 36.5113 69.9039 34.3746C69.8567 34.2132 69.7105 34.2373 69.7075 34.1785C69.6055 32.3361 67.1206 30.2145 65.5812 29.2669C61.9423 27.0247 56.4731 25.9247 52.1459 26.0816C52.0302 26.0861 51.7896 26.0107 51.8125 26.1751L53.7979 26.9688C59.4315 30.0078 62.4889 36.3664 57.3593 41.5888C57.0928 41.8604 56.1762 42.4247 56.1183 42.7295C56.0148 48.2899 56.2508 53.8654 56.1107 59.4242C56.0894 60.2451 56.0194 60.6193 55.6509 61.3466C55.5931 61.4613 55.22 62.092 55.255 62.1237L55.2566 62.1222Z" fill="black"/>
<path d="M46.8107 39.6629C47.6771 39.5829 48.1887 40.6708 47.6025 41.3031L36.7434 52.0677C35.7354 52.8252 34.5904 51.692 35.3548 50.6916L46.1652 39.9722C46.322 39.8349 46.6098 39.681 46.8123 39.6629H46.8107Z" fill="black"/>
<path d="M48.0563 46.3971C49.0856 46.2281 49.489 47.2421 48.8846 48.075C48.4095 48.7298 45.576 51.538 44.9137 52.0118C44.466 52.3316 44.0732 52.478 43.5844 52.1129C43.0957 51.7477 43.1368 51.2015 43.4459 50.7458C43.7808 50.2524 47.0879 46.9659 47.598 46.6098C47.7487 46.5042 47.869 46.4287 48.0563 46.3971Z" fill="black"/>
<path d="M38.6789 39.6629C39.5711 39.5739 40.0112 40.5501 39.4691 41.3031C39.0489 41.8871 35.9931 44.917 35.4023 45.3334C34.3441 46.0819 33.295 45.0528 33.9726 44.0101C34.3365 43.4488 37.3162 40.5577 37.9374 40.0688C38.1308 39.9179 38.4338 39.687 38.6789 39.6614V39.6629Z" fill="black"/>
<path d="M41.169 53.1345C42.6109 52.7648 42.9002 54.7581 41.6958 54.9874C40.394 55.2349 40.1245 53.403 41.169 53.1345Z" fill="black"/>
<path d="M41.2608 37.0086C42.5595 36.7627 42.8168 38.5417 41.8652 38.842C40.4218 39.2992 40.0244 37.2425 41.2608 37.0086Z" fill="black"/>
<path d="M66.0425 34.8328C66.5617 35.3474 66.1049 37.9502 65.9268 38.6956C65.3436 41.131 64.0357 43.1983 62.4538 45.1176L62.4355 59.4207C62.2985 60.575 60.4576 60.486 60.517 59.3271L60.5246 44.3435C60.5886 43.9965 61.4032 43.2647 61.6681 42.9131C62.7598 41.4675 63.8332 39.4245 64.1271 37.5775C64.2276 36.9483 64.2124 35.4122 64.4438 34.9762C64.6752 34.5401 65.706 34.5024 66.0425 34.8343V34.8328Z" fill="black"/>
</g>
<defs>
<clipPath id="clip0_4323_389">
<rect width="49" height="40" fill="white" transform="translate(23 24.0381)"/>
</clipPath>
</defs>
</svg>
