<svg width="88" height="88" viewBox="0 0 88 88" fill="none" xmlns="http://www.w3.org/2000/svg">
<rect x="0.881559" y="0.919645" width="85.5878" height="85.5878" rx="16.7496" stroke="#D9D9D9" stroke-width="1.76312"/>
<g clip-path="url(#clip0_4336_416)">
<path d="M55.6773 19.0381V20.8524H47.8312C47.6122 20.8524 46.8957 21.2745 46.8519 21.5721L46.4322 25.2068C52.0827 25.3931 56.9205 29.4051 57.6224 35.067C57.7635 36.2016 57.7429 37.3712 57.7453 38.513H60.239C60.576 38.513 60.8534 39.1263 60.8971 39.4311C61.0273 40.3503 61.0395 43.7104 60.9008 44.6128C60.6745 46.0872 58.7635 45.3687 57.6991 45.5199L57.6188 45.6046L54.9462 62.8951C54.7857 65.5609 53.2408 67.5216 50.5694 68.0381H37.31C35.8624 67.6426 34.6873 67.0124 33.8529 65.7303C32.5415 63.7152 32.5865 58.6726 32.3213 56.1252C31.6693 49.8429 31.0209 51.8894 30.3811 45.6058L30.3008 45.5211C29.2364 45.3699 27.3253 46.0884 27.0991 44.614C26.9604 43.7092 26.9726 40.3527 27.1027 39.4311C27.1745 38.9194 27.5674 38.3921 28.1258 38.3921H30.2546C30.1439 34.9473 30.6864 31.742 32.9904 29.0773C35.9719 25.6301 40.2222 24.9129 44.6076 25.2068C45.0102 22.859 44.3351 19.8134 47.285 19.0393H55.6785L55.6773 19.0381ZM32.1997 35.3065C32.1048 36.3286 32.269 37.4752 32.1997 38.5118H43.1478L44.3643 27.1421C42.6126 27.1493 40.8232 26.9945 39.1079 27.419C35.5316 28.3069 32.5415 31.6234 32.1997 35.3065ZM55.799 38.5118V35.3065C55.799 34.7985 55.3939 33.5285 55.1932 33.0059C53.8453 29.5019 50.1656 27.0671 46.3884 27.159L45.0941 38.5118H55.799ZM58.9618 40.3261H29.0369V43.7129H58.9618V40.3261ZM55.6773 45.5272H32.3213L34.9294 63.6898C35.3917 65.1134 36.3028 66.0689 37.8574 66.2213C41.7452 66.0109 45.9311 66.5044 49.7824 66.2274C51.2859 66.1197 52.433 65.4569 52.8661 63.9716L55.6773 45.526V45.5272Z" fill="black"/>
<path d="M36.3431 55.9559C36.9598 55.8241 37.3455 56.0721 37.5328 56.6563C37.8807 57.7388 38.0206 61.0494 38.506 61.7364C39.0789 62.5456 41.5045 61.792 42.3342 62.1633C43.0969 62.5056 42.9801 63.7938 41.9133 63.9184C41.2102 63.9994 39.3307 63.9994 38.6373 63.9051C35.7847 63.5156 36.3236 58.8697 35.668 56.8365C35.6984 56.4277 35.9198 56.0479 36.3431 55.9572V55.9559Z" fill="black"/>
<path d="M30.8477 48.9334L32.9278 62.8795L34.0871 62.6569L32.1712 47.4033L30.8477 48.9334Z" fill="black"/>
</g>
<defs>
<clipPath id="clip0_4336_416">
<rect width="34" height="49" fill="white" transform="translate(27 19.0381)"/>
</clipPath>
</defs>
</svg>
