<svg width="88" height="88" viewBox="0 0 88 88" fill="none" xmlns="http://www.w3.org/2000/svg">
<rect x="1.42843" y="0.881559" width="85.5112" height="85.5112" rx="16.7496" stroke="#D9D9D9" stroke-width="1.76312"/>
<path d="M31.5758 60.5V34.1065C31.5758 33.609 31.3903 33.1293 31.0556 32.7612L27.0412 28.3453C25.8733 27.0606 26.7848 25 28.5211 25H57.2273C58.3318 25 59.2273 25.8954 59.2273 27V60.5C59.2273 61.6046 58.3318 62.5 57.2273 62.5H33.5758C32.4712 62.5 31.5758 61.6046 31.5758 60.5Z" stroke="black" stroke-width="2.2" stroke-linecap="round"/>
<path d="M59.6055 32.5758H62.9085C64.0131 32.5758 64.9085 33.4712 64.9085 34.5758V45.4546" stroke="black" stroke-width="2.2" stroke-linecap="round"/>
<path d="M32.332 41.6666H41.4229" stroke="black" stroke-width="2.2" stroke-linecap="round"/>
<path d="M32.332 52.2727H41.4229" stroke="black" stroke-width="2.2" stroke-linecap="round"/>
<path d="M32.332 46.9697H41.4229" stroke="black" stroke-width="2.2" stroke-linecap="round"/>
</svg>
