<svg width="88" height="88" viewBox="0 0 88 88" fill="none" xmlns="http://www.w3.org/2000/svg">
<rect x="1.155" y="0.881559" width="85.5112" height="85.5112" rx="16.7496" stroke="#D9D9D9" stroke-width="1.76312"/>
<path d="M28.9747 61.9724V32.9291C28.9747 32.8344 28.9679 32.7419 28.956 32.648C28.568 29.5941 29.3817 23.802 35.6899 24.0055H55.1621C55.2666 24.0055 55.371 24.0125 55.4733 24.0338C57.1515 24.3839 60.2263 26.3454 60.2263 31.7539V62.5552C60.2263 63.6598 59.3309 64.5552 58.2263 64.5552H37.756C36.626 64.5552 35.7204 63.6197 35.7571 62.4902L36.723 32.7869C36.8091 31.1512 36.3614 27.983 33.882 28.3963" stroke="black" stroke-width="2.3" stroke-linecap="round"/>
<rect x="28.3594" y="60.4227" width="5.68212" height="2.58278" rx="1" fill="black"/>
<path d="M36.6225 32.0121H25" stroke="black" stroke-width="3.3" stroke-linecap="round"/>
<path d="M63.9987 32.0121H60.3828" stroke="black" stroke-width="3.3" stroke-linecap="round"/>
</svg>
