<svg width="89" height="88" viewBox="0 0 89 88" fill="none" xmlns="http://www.w3.org/2000/svg">
<rect x="1.70578" y="0.881559" width="85.5878" height="85.5878" rx="16.7496" fill="#5F4C32" stroke="#5F4C32" stroke-width="1.76312"/>
<g clip-path="url(#clip0_4323_317)">
<path d="M21 37.6173V40.0178C21.2812 40.8875 21.2756 41.8773 21.4613 42.795C22.6894 48.8553 26.8106 54.8159 32.2106 57.9679C32.0306 60.9648 32.3756 63.5499 35.625 64.5784H54.375C57.6244 63.5499 57.9694 60.9648 57.7894 57.9679C63.2081 54.8029 67.2881 48.8719 68.5387 42.795C68.7281 41.8773 68.7188 40.8894 69 40.0178V37.6173C68.7825 37.2499 68.5312 37.0228 68.2519 36.8843H21.7481C21.4688 37.0228 21.2175 37.248 21 37.6173ZM53.3531 61.8142C47.9438 62.2998 41.7825 61.443 36.2925 61.7939C34.7719 61.4929 35.055 60.0489 35.0625 58.8505H54.9375C54.9506 60.3536 55.2413 61.6443 53.3531 61.8142ZM61.3069 51.3684C60.1856 52.7127 56.7338 55.9367 55.0406 56.0918C48.6806 56.6735 41.4169 55.6302 34.9594 56.0918C33.2681 55.9367 29.82 52.7182 28.6931 51.3684C25.8825 48.0003 24.2625 43.7903 23.8125 39.4639H66.1875C65.7375 43.7903 64.1175 48.0022 61.3069 51.3684Z" fill="white"/>
</g>
<mask id="path-3-inside-1_4323_317" fill="white">
<path d="M52.3864 39.1917C52.3864 37.4341 52.0402 35.6936 51.3676 34.0697C50.6949 32.4458 49.709 30.9703 48.4662 29.7274C47.2233 28.4845 45.7478 27.4986 44.1239 26.826C42.5 26.1533 40.7595 25.8071 39.0018 25.8071C37.2441 25.8071 35.5036 26.1533 33.8797 26.826C32.2558 27.4986 30.7803 28.4845 29.5374 29.7274C28.2946 30.9703 27.3087 32.4458 26.636 34.0697C25.9634 35.6936 25.6172 37.4341 25.6172 39.1917L39.0018 39.1917H52.3864Z"/>
</mask>
<path d="M52.3864 39.1917C52.3864 37.4341 52.0402 35.6936 51.3676 34.0697C50.6949 32.4458 49.709 30.9703 48.4662 29.7274C47.2233 28.4845 45.7478 27.4986 44.1239 26.826C42.5 26.1533 40.7595 25.8071 39.0018 25.8071C37.2441 25.8071 35.5036 26.1533 33.8797 26.826C32.2558 27.4986 30.7803 28.4845 29.5374 29.7274C28.2946 30.9703 27.3087 32.4458 26.636 34.0697C25.9634 35.6936 25.6172 37.4341 25.6172 39.1917L39.0018 39.1917H52.3864Z" stroke="white" stroke-width="5" mask="url(#path-3-inside-1_4323_317)"/>
<mask id="path-4-inside-2_4323_317" fill="white">
<path d="M47.7689 39.1921C47.7689 38.0405 47.5421 36.9002 47.1014 35.8362C46.6607 34.7723 46.0148 33.8056 45.2005 32.9913C44.3862 32.177 43.4195 31.5311 42.3555 31.0904C41.2916 30.6497 40.1513 30.4229 38.9997 30.4229C37.8481 30.4229 36.7078 30.6497 35.6439 31.0904C34.5799 31.5311 33.6132 32.177 32.7989 32.9913C31.9846 33.8056 31.3387 34.7723 30.898 35.8362C30.4573 36.9002 30.2305 38.0405 30.2305 39.1921L38.9997 39.1921H47.7689Z"/>
</mask>
<path d="M47.7689 39.1921C47.7689 38.0405 47.5421 36.9002 47.1014 35.8362C46.6607 34.7723 46.0148 33.8056 45.2005 32.9913C44.3862 32.177 43.4195 31.5311 42.3555 31.0904C41.2916 30.6497 40.1513 30.4229 38.9997 30.4229C37.8481 30.4229 36.7078 30.6497 35.6439 31.0904C34.5799 31.5311 33.6132 32.177 32.7989 32.9913C31.9846 33.8056 31.3387 34.7723 30.898 35.8362C30.4573 36.9002 30.2305 38.0405 30.2305 39.1921L38.9997 39.1921H47.7689Z" stroke="white" stroke-width="5" mask="url(#path-4-inside-2_4323_317)"/>
<path d="M49.6172 23.0381L49.6172 32.2689" stroke="white" stroke-width="3" stroke-linecap="round"/>
<path d="M55.1523 23.0381L55.1523 37.8073" stroke="white" stroke-width="3" stroke-linecap="round"/>
<path d="M60.6914 23.0381L60.6914 37.8073" stroke="white" stroke-width="3" stroke-linecap="round"/>
<defs>
<clipPath id="clip0_4323_317">
<rect width="48" height="27.6923" fill="white" transform="translate(21 36.8843)"/>
</clipPath>
</defs>
</svg>
