<svg width="88" height="88" viewBox="0 0 88 88" fill="none" xmlns="http://www.w3.org/2000/svg">
<rect x="1.29562" y="0.881559" width="85.5878" height="85.5878" rx="16.7496" fill="#5F4C32" stroke="#5F4C32" stroke-width="1.76312"/>
<path d="M43.1034 21C42.514 21.2911 41.8815 21.3073 41.24 21.5624C40.5284 21.8463 39.5222 22.8417 39.2041 22.9388C38.5213 23.1472 37.6534 22.7663 36.9023 22.7842C34.5305 22.8435 32.297 24.4103 31.2098 26.4461C31.0194 26.8037 30.7229 27.9105 30.6654 27.968C30.6079 28.0255 29.5909 28.2699 29.2602 28.4496C27.2262 29.551 25.7222 31.5131 25.5155 33.8669C25.4419 34.7114 25.812 35.9314 25.6359 36.5046C25.573 36.7131 24.7429 37.6133 24.5003 38.0661C24.1966 38.6302 23.9361 39.2034 23.857 39.8485C22.7016 39.8916 21.6774 39.5987 21 40.7649V43.1007C21.2713 43.947 21.2623 44.9101 21.442 45.8031C22.6387 51.7146 26.5487 57.4877 31.7435 60.5674C31.571 63.4837 31.9016 65.9992 35.0156 67H52.9844C56.0984 65.9992 56.429 63.4837 56.2565 60.5674C61.4297 57.5021 65.381 51.7002 66.558 45.8031C66.7359 44.9101 66.7323 43.9488 67 43.1007V40.7649C66.3226 39.5987 65.3002 39.8916 64.143 39.8485C64.0639 39.2034 63.8034 38.6302 63.4997 38.0661C63.2553 37.6133 62.427 36.7131 62.3641 36.5046C62.1898 35.9314 62.5599 34.7132 62.4845 33.8669C62.2796 31.5113 60.7738 29.5492 58.7398 28.4496C58.4091 28.2699 57.3903 28.0237 57.3346 27.968C57.2789 27.9123 56.9806 26.8037 56.7902 26.4461C55.703 24.4103 53.4713 22.8435 51.0977 22.7842C50.3484 22.7663 49.4769 23.1472 48.7959 22.9388C48.4509 22.8327 47.3332 21.6972 46.7348 21.5876L44.717 21H43.0998L43.1034 21ZM26.7518 39.8665C26.6655 38.7542 28.5451 37.9115 28.6996 37.0383C28.8272 36.3214 28.1803 35.3583 28.1749 34.5659C28.1605 32.6379 29.3752 31.2957 31.0643 30.6129C31.6321 30.3829 32.279 30.559 32.7839 29.9966C33.2026 29.5294 33.296 28.4226 33.6015 27.7596C34.1909 26.4821 35.481 25.5693 36.9095 25.4884C37.923 25.4309 38.9975 26.1335 39.736 26.0023C40.3541 25.8927 41.2687 24.5595 42.0432 24.1624C43.3495 23.4922 44.6235 23.5622 45.9209 24.2019C46.7025 24.5864 47.7105 25.9035 48.2676 26.0023C49.0061 26.1335 50.0806 25.4327 51.0941 25.4884C52.5226 25.5693 53.8127 26.4821 54.4021 27.7596C54.7076 28.4226 54.801 29.5294 55.2197 29.9966C55.7246 30.559 56.3715 30.3829 56.9393 30.6129C58.6284 31.2957 59.843 32.6379 59.8287 34.5659C59.8233 35.3583 59.1764 36.3214 59.304 37.0383C59.4585 37.9097 61.3398 38.7542 61.2518 39.8665H26.7518ZM23.6971 42.5617H64.3065C63.8752 46.7716 62.3227 50.8701 59.6292 54.1457C58.5493 55.4591 55.2448 58.591 53.6241 58.7419C47.4356 58.2927 40.4745 59.3079 34.3795 58.7419C32.757 58.591 29.4489 55.4537 28.3744 54.1457C25.6809 50.8701 24.1302 46.7716 23.6971 42.5617ZM34.4784 61.4281H53.5252C53.5324 62.5942 53.8038 63.9993 52.3465 64.2922C47.0852 63.9508 41.1807 64.7827 35.9967 64.312C34.1855 64.1467 34.464 62.8925 34.4784 61.4281Z" fill="white"/>
</svg>
