<svg width="88" height="88" viewBox="0 0 88 88" fill="none" xmlns="http://www.w3.org/2000/svg">
<rect x="1.29562" y="0.881559" width="85.5878" height="85.5878" rx="16.7496" stroke="#D9D9D9" stroke-width="1.76312"/>
<path d="M44.1034 20.0381C43.514 20.3292 42.8815 20.3453 42.24 20.6005C41.5284 20.8844 40.5222 21.8798 40.2041 21.9768C39.5213 22.1853 38.6534 21.8043 37.9023 21.8223C35.5305 21.8816 33.297 23.4484 32.2098 25.4842C32.0194 25.8418 31.7229 26.9486 31.6654 27.0061C31.6079 27.0636 30.5909 27.308 30.2602 27.4876C28.2262 28.5891 26.7222 30.5512 26.5155 32.905C26.4419 33.7495 26.812 34.9695 26.6359 35.5427C26.573 35.7511 25.7429 36.6513 25.5003 37.1041C25.1966 37.6683 24.9361 38.2415 24.857 38.8866C23.7016 38.9297 22.6774 38.6368 22 39.8029V42.1388C22.2713 42.9851 22.2623 43.9482 22.442 44.8412C23.6387 50.7527 27.5487 56.5258 32.7435 59.6055C32.571 62.5217 32.9016 65.0373 36.0156 66.0381H53.9844C57.0984 65.0373 57.429 62.5217 57.2565 59.6055C62.4297 56.5402 66.381 50.7383 67.558 44.8412C67.7359 43.9482 67.7323 42.9869 68 42.1388V39.8029C67.3226 38.6368 66.3002 38.9297 65.143 38.8866C65.0639 38.2415 64.8034 37.6683 64.4997 37.1041C64.2553 36.6513 63.427 35.7511 63.3641 35.5427C63.1898 34.9695 63.5599 33.7513 63.4845 32.905C63.2796 30.5494 61.7738 28.5873 59.7398 27.4876C59.4091 27.308 58.3903 27.0618 58.3346 27.0061C58.2789 26.9504 57.9806 25.8418 57.7902 25.4842C56.703 23.4484 54.4713 21.8816 52.0977 21.8223C51.3484 21.8043 50.4769 22.1853 49.7959 21.9768C49.4509 21.8708 48.3332 20.7352 47.7348 20.6256L45.717 20.0381H44.0998L44.1034 20.0381ZM27.7518 38.9045C27.6655 37.7923 29.5451 36.9496 29.6996 36.0764C29.8272 35.3594 29.1803 34.3964 29.1749 33.604C29.1605 31.676 30.3752 30.3338 32.0643 29.651C32.6321 29.421 33.279 29.5971 33.7839 29.0347C34.2026 28.5675 34.296 27.4607 34.6015 26.7977C35.1909 25.5201 36.481 24.6074 37.9095 24.5265C38.923 24.469 39.9975 25.1716 40.736 25.0404C41.3541 24.9308 42.2687 23.5976 43.0432 23.2005C44.3495 22.5303 45.6235 22.6003 46.9209 23.24C47.7025 23.6245 48.7105 24.9416 49.2676 25.0404C50.0061 25.1716 51.0806 24.4708 52.0941 24.5265C53.5226 24.6074 54.8127 25.5201 55.4021 26.7977C55.7076 27.4607 55.801 28.5675 56.2197 29.0347C56.7246 29.5971 57.3715 29.421 57.9393 29.651C59.6284 30.3338 60.843 31.676 60.8287 33.604C60.8233 34.3964 60.1764 35.3594 60.304 36.0764C60.4585 36.9478 62.3398 37.7923 62.2518 38.9045H27.7518ZM24.6971 41.5997H65.3065C64.8752 45.8097 63.3227 49.9082 60.6292 53.1837C59.5493 54.4972 56.2448 57.629 54.6241 57.78C48.4356 57.3308 41.4745 58.346 35.3795 57.78C33.757 57.629 30.4489 54.4918 29.3744 53.1837C26.6809 49.9082 25.1302 45.8097 24.6971 41.5997ZM35.4784 60.4662H54.5252C54.5324 61.6323 54.8038 63.0374 53.3465 63.3303C48.0852 62.9889 42.1807 63.8208 36.9967 63.3501C35.1855 63.1848 35.464 61.9306 35.4784 60.4662Z" fill="black"/>
</svg>
