<svg width="88" height="88" viewBox="0 0 88 88" fill="none" xmlns="http://www.w3.org/2000/svg">
<rect x="1.11984" y="0.881559" width="85.5878" height="85.5878" rx="16.7496" stroke="#D9D9D9" stroke-width="1.76312"/>
<path d="M68.002 42.7888V43.5555C67.8457 44.0962 67.7654 44.6052 67.5056 45.1184C66.4898 47.1227 63.6997 47.6761 61.9235 48.8187C61.7736 50.7153 62.065 52.5824 61.6215 54.4494C60.6985 58.3335 57.2073 61.2122 53.2219 61.4572C46.8583 61.85 40.0977 61.1509 33.6918 61.4572C29.8036 61.1509 26.3926 58.3989 25.4253 54.6036C24.9353 52.6774 25.2331 50.7808 25.0853 48.8187C23.2077 47.6212 20.0818 47.0024 19.2919 44.6601C19.1673 44.2905 19.1568 43.9019 19.0089 43.5555C19.0279 43.3063 18.9815 43.0338 19.0089 42.7888C19.2455 40.7254 21.0111 39.0759 23.0767 38.9618C36.9381 39.0378 50.8311 38.7992 64.6734 39.0822C66.4158 39.4539 67.7971 41.0168 68.002 42.7888ZM25.1317 41.0654H22.5952C22.0482 41.0654 21.2329 41.9926 21.0661 42.5016C20.2445 45.0044 23.5921 45.5873 25.1317 46.5208V41.0654ZM59.8685 41.0654H27.1403L27.1361 52.3141C27.2374 55.7737 29.7085 58.7664 33.1469 59.3177C39.5485 59.2311 46.4676 59.8478 52.8375 59.4444C56.3308 59.2226 59.8664 56.3904 59.8664 52.6922V41.0633L59.8685 41.0654ZM61.8771 46.5208C63.421 45.6126 66.758 44.9896 65.9427 42.5016C65.7759 41.9926 64.9606 41.0654 64.4136 41.0654H61.8771V46.5208Z" fill="black"/>
<path d="M37.9288 23.04C38.9843 23.7495 38.5068 24.9035 37.838 25.7096C37.4513 26.1754 36.6356 26.5601 36.6936 27.2019C36.7322 27.6233 37.5113 28.0872 37.7877 28.3927C38.6479 29.3476 38.8451 30.6369 38.0525 31.704C37.7529 32.108 36.9449 32.6299 36.7844 32.9759C36.5041 33.579 36.5331 34.5514 35.412 34.1841C34.169 33.7762 35.037 32.0481 35.6478 31.4005C36.1175 30.9037 37.1305 30.5229 36.4423 29.6743C35.6981 28.758 34.7025 28.5164 34.7818 26.9506C34.8669 25.2901 36.2103 25.147 36.6588 24.0897C36.8386 23.6663 36.7612 23.33 37.316 23.0381H37.9288V23.04Z" fill="black"/>
<path d="M52.8174 23.04C53.8207 23.5233 53.5462 24.6271 53.03 25.4003C52.7227 25.8623 51.5976 26.6142 51.5976 27.113C51.5976 27.5827 52.7517 28.3211 53.0648 28.7928C53.6776 29.7129 53.6177 30.8573 52.9759 31.7407C52.5603 32.3148 51.9166 32.5294 51.6324 33.2002C51.5783 33.3297 51.5996 33.5037 51.5454 33.639C51.1685 34.5939 49.885 34.3755 49.7574 33.4109C49.6646 32.713 50.0261 32.0964 50.4533 31.5822C50.8457 31.1086 51.6711 30.7471 51.588 30.0976C51.5049 29.4481 49.9642 28.8489 49.7728 27.5266C49.5119 25.7212 50.5074 25.5685 51.3637 24.5227C51.7561 24.0452 51.5203 23.3184 52.2897 23.0381H52.8155L52.8174 23.04Z" fill="black"/>
<path d="M45.3739 23.04C46.354 23.6354 46.0583 24.7624 45.4609 25.5375C45.1227 25.9764 44.0904 26.6336 44.1484 27.1942C44.1929 27.6291 45.0241 28.1104 45.3314 28.4719C46.1955 29.4887 46.2612 30.8998 45.372 31.9321C45.0859 32.2646 44.4441 32.6222 44.247 32.9953C44.0382 33.3916 44.2006 33.8845 43.6477 34.1474C42.4164 34.7292 42.0568 33.2195 42.5266 32.2375C42.8552 31.5513 43.9048 30.9211 44.1039 30.4881C44.4306 29.7806 43.2708 29.222 42.8784 28.7387C42.0839 27.7606 42.0878 26.3958 42.888 25.4177C43.1838 25.0562 43.7869 24.7353 44.015 24.3545C44.2914 23.8944 44.1117 23.2759 44.8501 23.0439H45.3759L45.3739 23.04Z" fill="black"/>
</svg>
