<svg width="172" height="172" viewBox="0 0 172 172" fill="none" xmlns="http://www.w3.org/2000/svg">
<path d="M54.5287 90.3548H60.2252V92.1156H54.5287V90.3548ZM54.5287 94.5806H60.2252V96.3413H54.5287V94.5806ZM51.2144 88.8219C52.1396 88.8219 52.9751 89.0153 53.7208 89.402C54.4665 89.7886 55.0535 90.3272 55.4816 91.0177C55.9097 91.6944 56.1237 92.4746 56.1237 93.3584C56.1237 94.2423 55.9097 95.0225 55.4816 95.6992C55.0535 96.3758 54.4665 96.9075 53.7208 97.2942C52.9751 97.6809 52.1396 97.8742 51.2144 97.8742C50.2753 97.8742 49.4329 97.6809 48.6872 97.2942C47.9415 96.9075 47.3546 96.3758 46.9265 95.6992C46.4984 95.0225 46.2843 94.2423 46.2843 93.3584C46.2843 92.4746 46.4984 91.6944 46.9265 91.0177C47.3546 90.3272 47.9415 89.7886 48.6872 89.402C49.4329 89.0153 50.2753 88.8219 51.2144 88.8219ZM51.2144 90.6448C50.662 90.6448 50.1717 90.7622 49.7436 90.997C49.3155 91.2179 48.9703 91.5356 48.7079 91.9498C48.4593 92.3503 48.335 92.8199 48.335 93.3584C48.335 93.897 48.4593 94.3734 48.7079 94.7877C48.9703 95.1882 49.3155 95.5058 49.7436 95.7406C50.1717 95.9616 50.6551 96.072 51.1937 96.072C51.746 96.072 52.2363 95.9616 52.6644 95.7406C53.1063 95.5058 53.4446 95.1882 53.6794 94.7877C53.928 94.3734 54.0523 93.897 54.0523 93.3584C54.0523 92.8199 53.928 92.3503 53.6794 91.9498C53.4446 91.5356 53.1063 91.2179 52.6644 90.997C52.2363 90.7622 51.7529 90.6448 51.2144 90.6448ZM59.5209 87.7862H61.6959V98.5785H59.5209V87.7862ZM49.2672 99.4899H61.6959V106.471H49.2672V99.4899ZM59.583 101.23H51.4008V104.751H59.583V101.23ZM65.0708 102.576H82.2224V104.358H65.0708V102.576ZM72.4866 98.1435H74.6409V103.094H72.4866V98.1435ZM72.4037 88.9462H74.3095V90.3755C74.3095 91.1765 74.1783 91.9498 73.9159 92.6956C73.6673 93.4275 73.3013 94.1111 72.818 94.7463C72.3485 95.3815 71.7892 95.9547 71.1401 96.4656C70.4911 96.9766 69.773 97.4116 68.9858 97.7706C68.2125 98.1297 67.3977 98.3921 66.5415 98.5578L65.6301 96.7349C66.3758 96.6106 67.087 96.4035 67.7637 96.1135C68.4403 95.8235 69.0618 95.4713 69.628 95.057C70.1942 94.6427 70.6844 94.187 71.0987 93.6899C71.513 93.1789 71.8306 92.6472 72.0516 92.0948C72.2863 91.5286 72.4037 90.9555 72.4037 90.3755V88.9462ZM72.818 88.9462H74.703V90.3755C74.703 90.9555 74.8204 91.5286 75.0552 92.0948C75.2899 92.661 75.6145 93.1927 76.0288 93.6899C76.4431 94.187 76.9333 94.6496 77.4995 95.0777C78.0657 95.492 78.6871 95.8442 79.3638 96.1342C80.0405 96.4104 80.7586 96.6106 81.5181 96.7349L80.586 98.5578C79.7298 98.3921 78.9081 98.1297 78.1209 97.7706C77.3476 97.4116 76.6364 96.9835 75.9873 96.4863C75.3383 95.9754 74.7721 95.4023 74.2887 94.767C73.8192 94.118 73.4533 93.4275 73.1909 92.6956C72.9423 91.9498 72.818 91.1765 72.818 90.3755V88.9462ZM93.295 98.0399H95.4493V103.322H93.295V98.0399ZM99.1779 98.0606H101.332V103.322H99.1779V98.0606ZM88.7792 102.742H105.931V104.503H88.7792V102.742ZM90.1878 89.402H104.419V91.1627H90.1878V89.402ZM90.2707 96.942H104.377V98.6821H90.2707V96.942ZM92.9843 90.852H95.1386V97.232H92.9843V90.852ZM99.4679 90.852H101.622V97.232H99.4679V90.852ZM108.601 88.9877H110.631V91.8256H113.966V88.9877H115.996V97.9571H108.601V88.9877ZM110.631 93.5034V96.2378H113.966V93.5034H110.631ZM121.797 87.7862H123.868V99.1585H121.797V87.7862ZM119.083 92.5713H122.418V94.332H119.083V92.5713ZM117.757 88.1384H119.808V99.0756H117.757V88.1384ZM111.025 100.174H123.868V106.719H121.714V101.934H111.025V100.174Z" fill="black"/>
<path d="M82.4796 9.96749C84.0442 7.25749 87.9558 7.25749 89.5204 9.9675L153.606 120.968C155.171 123.678 153.215 127.065 150.086 127.065H21.9141C18.7849 127.065 16.8291 123.678 18.3937 120.967L82.4796 9.96749Z" stroke="black" stroke-width="3.87"/>
</svg>
