<svg width="172" height="172" viewBox="0 0 172 172" fill="none" xmlns="http://www.w3.org/2000/svg">
<path d="M44.5103 88.9255H46.2918V91.1213C46.2918 92.3641 46.0846 93.5241 45.6704 94.6013C45.2699 95.6646 44.6761 96.5899 43.8889 97.377C43.1018 98.1642 42.1489 98.7649 41.0303 99.1792L39.8496 97.4806C40.8715 97.1354 41.7277 96.6451 42.4182 96.0099C43.1087 95.3608 43.6265 94.6151 43.9718 93.7727C44.3308 92.9303 44.5103 92.0465 44.5103 91.1213V88.9255ZM44.9246 88.9255H46.6854V91.1834C46.6854 91.8048 46.782 92.4125 46.9754 93.0063C47.1825 93.6001 47.4725 94.1594 47.8454 94.6842C48.2321 95.2089 48.7016 95.6716 49.254 96.072C49.8202 96.4725 50.4692 96.797 51.2011 97.0456L50.1033 98.7649C48.9985 98.3644 48.0594 97.7913 47.2861 97.0456C46.5127 96.2999 45.9258 95.423 45.5254 94.4149C45.1249 93.393 44.9246 92.3158 44.9246 91.1834V88.9255ZM52.6512 87.7655H54.8055V101.686H52.6512V87.7655ZM54.1633 93.4413H57.4776V95.2435H54.1633V93.4413ZM42.8739 104.565H55.5719V106.326H42.8739V104.565ZM42.8739 100.36H45.0489V105.476H42.8739V100.36ZM59.0918 102.576H76.2434V104.358H59.0918V102.576ZM66.5076 98.1435H68.6619V103.094H66.5076V98.1435ZM66.4247 88.9462H68.3304V90.3755C68.3304 91.1765 68.1992 91.9498 67.9369 92.6956C67.6883 93.4275 67.3223 94.1111 66.839 94.7463C66.3695 95.3815 65.8102 95.9547 65.1611 96.4656C64.5121 96.9766 63.794 97.4116 63.0068 97.7706C62.2335 98.1297 61.4187 98.3921 60.5625 98.5578L59.651 96.7349C60.3968 96.6106 61.108 96.4035 61.7846 96.1135C62.4613 95.8235 63.0828 95.4713 63.649 95.057C64.2151 94.6427 64.7054 94.187 65.1197 93.6899C65.534 93.1789 65.8516 92.6472 66.0726 92.0948C66.3073 91.5286 66.4247 90.9555 66.4247 90.3755V88.9462ZM66.839 88.9462H68.724V90.3755C68.724 90.9555 68.8414 91.5286 69.0762 92.0948C69.3109 92.661 69.6355 93.1927 70.0497 93.6899C70.464 94.187 70.9543 94.6496 71.5205 95.0777C72.0867 95.492 72.7081 95.8442 73.3848 96.1342C74.0615 96.4104 74.7796 96.6106 75.5391 96.7349L74.6069 98.5578C73.7507 98.3921 72.9291 98.1297 72.1419 97.7706C71.3686 97.4116 70.6574 96.9835 70.0083 96.4863C69.3593 95.9754 68.7931 95.4023 68.3097 94.767C67.8402 94.118 67.4742 93.4275 67.2119 92.6956C66.9633 91.9498 66.839 91.1765 66.839 90.3755V88.9462ZM101.274 98.0399H103.428V103.322H101.274V98.0399ZM107.157 98.0606H109.311V103.322H107.157V98.0606ZM96.7582 102.742H113.91V104.503H96.7582V102.742ZM98.1668 89.402H112.398V91.1627H98.1668V89.402ZM98.2497 96.942H112.356V98.6821H98.2497V96.942ZM100.963 90.852H103.118V97.232H100.963V90.852ZM107.447 90.852H109.601V97.232H107.447V90.852ZM116.58 88.9877H118.61V91.8256H121.945V88.9877H123.976V97.9571H116.58V88.9877ZM118.61 93.5034V96.2378H121.945V93.5034H118.61ZM129.776 87.7862H131.847V99.1585H129.776V87.7862ZM127.062 92.5713H130.397V94.332H127.062V92.5713ZM125.736 88.1384H127.787V99.0756H125.736V88.1384ZM119.004 100.174H131.847V106.719H129.693V101.934H119.004V100.174Z" fill="black"/>
<path d="M76.9108 60.3548H82.6073V62.1156H76.9108V60.3548ZM76.9108 64.5806H82.6073V66.3413H76.9108V64.5806ZM73.5965 58.8219C74.5217 58.8219 75.3572 59.0153 76.1029 59.402C76.8486 59.7886 77.4356 60.3272 77.8637 61.0177C78.2918 61.6944 78.5058 62.4746 78.5058 63.3584C78.5058 64.2423 78.2918 65.0225 77.8637 65.6992C77.4356 66.3758 76.8486 66.9075 76.1029 67.2942C75.3572 67.6809 74.5217 67.8742 73.5965 67.8742C72.6574 67.8742 71.815 67.6809 71.0693 67.2942C70.3236 66.9075 69.7367 66.3758 69.3086 65.6992C68.8805 65.0225 68.6664 64.2423 68.6664 63.3584C68.6664 62.4746 68.8805 61.6944 69.3086 61.0177C69.7367 60.3272 70.3236 59.7886 71.0693 59.402C71.815 59.0153 72.6574 58.8219 73.5965 58.8219ZM73.5965 60.6448C73.0441 60.6448 72.5538 60.7622 72.1257 60.997C71.6976 61.2179 71.3524 61.5356 71.09 61.9498C70.8414 62.3503 70.7171 62.8199 70.7171 63.3584C70.7171 63.897 70.8414 64.3734 71.09 64.7877C71.3524 65.1882 71.6976 65.5058 72.1257 65.7406C72.5538 65.9616 73.0372 66.072 73.5757 66.072C74.1281 66.072 74.6184 65.9616 75.0465 65.7406C75.4884 65.5058 75.8267 65.1882 76.0615 64.7877C76.3101 64.3734 76.4344 63.897 76.4344 63.3584C76.4344 62.8199 76.3101 62.3503 76.0615 61.9498C75.8267 61.5356 75.4884 61.2179 75.0465 60.997C74.6184 60.7622 74.135 60.6448 73.5965 60.6448ZM81.903 57.7862H84.078V68.5785H81.903V57.7862ZM71.6493 69.4899H84.078V76.4707H71.6493V69.4899ZM81.9651 71.23H73.7829V74.7514H81.9651V71.23ZM87.4529 72.5764H104.605V74.3578H87.4529V72.5764ZM94.8687 68.1435H97.023V73.0943H94.8687V68.1435ZM94.7858 58.9462H96.6916V60.3755C96.6916 61.1765 96.5604 61.9498 96.298 62.6956C96.0494 63.4275 95.6834 64.1111 95.2001 64.7463C94.7306 65.3815 94.1713 65.9547 93.5222 66.4656C92.8732 66.9766 92.1551 67.4116 91.3679 67.7706C90.5946 68.1297 89.7798 68.3921 88.9236 68.5578L88.0122 66.7349C88.7579 66.6106 89.4691 66.4035 90.1458 66.1135C90.8224 65.8235 91.4439 65.4713 92.0101 65.057C92.5763 64.6427 93.0665 64.187 93.4808 63.6899C93.8951 63.1789 94.2127 62.6472 94.4337 62.0948C94.6684 61.5286 94.7858 60.9555 94.7858 60.3755V58.9462ZM95.2001 58.9462H97.0851V60.3755C97.0851 60.9555 97.2025 61.5286 97.4373 62.0948C97.672 62.661 97.9966 63.1927 98.4109 63.6899C98.8251 64.187 99.3154 64.6496 99.8816 65.0777C100.448 65.492 101.069 65.8442 101.746 66.1342C102.423 66.4104 103.141 66.6106 103.9 66.7349L102.968 68.5578C102.112 68.3921 101.29 68.1297 100.503 67.7706C99.7297 67.4116 99.0185 66.9835 98.3694 66.4863C97.7204 65.9754 97.1542 65.4023 96.6708 64.767C96.2013 64.118 95.8354 63.4275 95.573 62.6956C95.3244 61.9498 95.2001 61.1765 95.2001 60.3755V58.9462Z" fill="black"/>
<path d="M89.5204 9.9675L153.606 120.968C155.171 123.678 153.215 127.065 150.086 127.065H21.9141C18.7849 127.065 16.8291 123.678 18.3937 120.967L82.4796 9.96749C84.0442 7.2575 87.9558 7.25749 89.5204 9.9675Z" stroke="black" stroke-width="3.87"/>
<path d="M129.001 50.4968L47.1602 142.983" stroke="black" stroke-width="4" stroke-linecap="round"/>
<path d="M122.678 140.654L43.4994 50.8293" stroke="black" stroke-width="4" stroke-linecap="round"/>
</svg>
