<svg width="172" height="172" viewBox="0 0 172 172" fill="none" xmlns="http://www.w3.org/2000/svg">
<path d="M73.8259 64.3548H79.5224V66.1156H73.8259V64.3548ZM73.8259 68.5806H79.5224V70.3413H73.8259V68.5806ZM70.5115 62.8219C71.4368 62.8219 72.2723 63.0153 73.018 63.402C73.7637 63.7886 74.3506 64.3272 74.7787 65.0177C75.2068 65.6944 75.4209 66.4746 75.4209 67.3584C75.4209 68.2423 75.2068 69.0225 74.7787 69.6992C74.3506 70.3758 73.7637 70.9075 73.018 71.2942C72.2723 71.6809 71.4368 71.8742 70.5115 71.8742C69.5725 71.8742 68.7301 71.6809 67.9844 71.2942C67.2386 70.9075 66.6517 70.3758 66.2236 69.6992C65.7955 69.0225 65.5815 68.2423 65.5815 67.3584C65.5815 66.4746 65.7955 65.6944 66.2236 65.0177C66.6517 64.3272 67.2386 63.7886 67.9844 63.402C68.7301 63.0153 69.5725 62.8219 70.5115 62.8219ZM70.5115 64.6448C69.9591 64.6448 69.4689 64.7622 69.0408 64.997C68.6127 65.2179 68.2675 65.5356 68.0051 65.9498C67.7565 66.3503 67.6322 66.8199 67.6322 67.3584C67.6322 67.897 67.7565 68.3734 68.0051 68.7877C68.2675 69.1882 68.6127 69.5058 69.0408 69.7406C69.4689 69.9616 69.9522 70.072 70.4908 70.072C71.0432 70.072 71.5335 69.9616 71.9616 69.7406C72.4035 69.5058 72.7418 69.1882 72.9766 68.7877C73.2251 68.3734 73.3494 67.897 73.3494 67.3584C73.3494 66.8199 73.2251 66.3503 72.9766 65.9498C72.7418 65.5356 72.4035 65.2179 71.9616 64.997C71.5335 64.7622 71.0501 64.6448 70.5115 64.6448ZM78.8181 61.7862H80.9931V72.5785H78.8181V61.7862ZM68.5644 73.4899H80.9931V80.4707H68.5644V73.4899ZM78.8802 75.23H70.698V78.7514H78.8802V75.23ZM84.3679 76.5764H101.52V78.3578H84.3679V76.5764ZM91.7837 72.1435H93.9381V77.0943H91.7837V72.1435ZM91.7009 62.9462H93.6066V64.3755C93.6066 65.1765 93.4754 65.9498 93.213 66.6956C92.9645 67.4275 92.5985 68.1111 92.1152 68.7463C91.6456 69.3815 91.0864 69.9547 90.4373 70.4656C89.7882 70.9766 89.0701 71.4116 88.283 71.7706C87.5096 72.1297 86.6949 72.3921 85.8387 72.5578L84.9272 70.7349C85.673 70.6106 86.3842 70.4035 87.0608 70.1135C87.7375 69.8235 88.3589 69.4713 88.9251 69.057C89.4913 68.6427 89.9816 68.187 90.3959 67.6899C90.8102 67.1789 91.1278 66.6472 91.3487 66.0948C91.5835 65.5286 91.7009 64.9555 91.7009 64.3755V62.9462ZM92.1152 62.9462H94.0002V64.3755C94.0002 64.9555 94.1176 65.5286 94.3523 66.0948C94.5871 66.661 94.9116 67.1927 95.3259 67.6899C95.7402 68.187 96.2305 68.6496 96.7967 69.0777C97.3629 69.492 97.9843 69.8442 98.661 70.1342C99.3376 70.4104 100.056 70.6106 100.815 70.7349L99.8831 72.5578C99.0269 72.3921 98.2052 72.1297 97.4181 71.7706C96.6448 71.4116 95.9336 70.9835 95.2845 70.4863C94.6354 69.9754 94.0692 69.4023 93.5859 68.767C93.1164 68.118 92.7504 67.4275 92.488 66.6956C92.2395 65.9498 92.1152 65.1765 92.1152 64.3755V62.9462ZM104.107 83.1429L103.569 81.7965C104.287 81.4926 104.846 81.0853 105.247 80.5743C105.647 80.0772 105.84 79.5179 105.827 78.8964L105.661 76.9907L106.655 78.565C106.517 78.7169 106.358 78.8274 106.179 78.8964C105.999 78.9517 105.806 78.9793 105.599 78.9793C105.184 78.9793 104.812 78.8481 104.48 78.5857C104.163 78.3095 104.004 77.9297 104.004 77.4464C104.004 76.9769 104.163 76.604 104.48 76.3278C104.812 76.0516 105.205 75.9135 105.661 75.9135C106.255 75.9135 106.71 76.1414 107.028 76.5971C107.346 77.0528 107.504 77.6812 107.504 78.4821C107.504 79.5731 107.201 80.5191 106.593 81.32C105.999 82.1348 105.171 82.7424 104.107 83.1429ZM51.4894 86.9255H53.2708V89.1213C53.2708 90.3641 53.0637 91.5241 52.6494 92.6013C52.2489 93.6646 51.6551 94.5899 50.8679 95.377C50.0808 96.1642 49.1279 96.7649 48.0093 97.1792L46.8286 95.4806C47.8505 95.1354 48.7067 94.6451 49.3972 94.0099C50.0877 93.3608 50.6055 92.6151 50.9508 91.7727C51.3098 90.9303 51.4894 90.0465 51.4894 89.1213V86.9255ZM51.9036 86.9255H53.6644V89.1834C53.6644 89.8048 53.7611 90.4125 53.9544 91.0063C54.1615 91.6001 54.4515 92.1594 54.8244 92.6842C55.2111 93.2089 55.6806 93.6716 56.233 94.072C56.7992 94.4725 57.4482 94.797 58.1802 95.0456L57.0823 96.7649C55.9775 96.3644 55.0384 95.7913 54.2651 95.0456C53.4918 94.2999 52.9049 93.423 52.5044 92.4149C52.1039 91.393 51.9036 90.3158 51.9036 89.1834V86.9255ZM59.6302 85.7655H61.7845V99.6857H59.6302V85.7655ZM61.1423 91.4413H64.4567V93.2435H61.1423V91.4413ZM49.8529 102.565H62.5509V104.326H49.8529V102.565ZM49.8529 98.3599H52.0279V103.476H49.8529V98.3599ZM66.0708 100.576H83.2224V102.358H66.0708V100.576ZM73.4866 96.1435H75.6409V101.094H73.4866V96.1435ZM73.4037 86.9462H75.3095V88.3755C75.3095 89.1765 75.1783 89.9498 74.9159 90.6956C74.6673 91.4275 74.3013 92.1111 73.818 92.7463C73.3485 93.3815 72.7892 93.9547 72.1401 94.4656C71.4911 94.9766 70.773 95.4116 69.9858 95.7706C69.2125 96.1297 68.3977 96.3921 67.5415 96.5578L66.6301 94.7349C67.3758 94.6106 68.087 94.4035 68.7637 94.1135C69.4403 93.8235 70.0618 93.4713 70.628 93.057C71.1942 92.6427 71.6844 92.187 72.0987 91.6899C72.513 91.1789 72.8306 90.6472 73.0516 90.0948C73.2863 89.5286 73.4037 88.9555 73.4037 88.3755V86.9462ZM73.818 86.9462H75.703V88.3755C75.703 88.9555 75.8204 89.5286 76.0552 90.0948C76.2899 90.661 76.6145 91.1927 77.0288 91.6899C77.4431 92.187 77.9333 92.6496 78.4995 93.0777C79.0657 93.492 79.6871 93.8442 80.3638 94.1342C81.0405 94.4104 81.7586 94.6106 82.5181 94.7349L81.586 96.5578C80.7298 96.3921 79.9081 96.1297 79.1209 95.7706C78.3476 95.4116 77.6364 94.9835 76.9873 94.4863C76.3383 93.9754 75.7721 93.4023 75.2887 92.767C74.8192 92.118 74.4533 91.4275 74.1909 90.6956C73.9423 89.9498 73.818 89.1765 73.818 88.3755V86.9462ZM94.295 96.0399H96.4493V101.322H94.295V96.0399ZM100.178 96.0606H102.332V101.322H100.178V96.0606ZM89.7792 100.742H106.931V102.503H89.7792V100.742ZM91.1878 87.402H105.419V89.1627H91.1878V87.402ZM91.2707 94.942H105.377V96.6821H91.2707V94.942ZM93.9843 88.852H96.1386V95.232H93.9843V88.852ZM100.468 88.852H102.622V95.232H100.468V88.852ZM109.601 86.9877H111.631V89.8256H114.966V86.9877H116.996V95.9571H109.601V86.9877ZM111.631 91.5034V94.2378H114.966V91.5034H111.631ZM122.797 85.7862H124.868V97.1585H122.797V85.7862ZM120.083 90.5713H123.418V92.332H120.083V90.5713ZM118.757 86.1384H120.808V97.0756H118.757V86.1384ZM112.025 98.1735H124.868V104.719H122.714V99.9342H112.025V98.1735Z" fill="black"/>
<path d="M89.5204 9.9675L153.606 120.968C155.171 123.678 153.215 127.065 150.086 127.065H21.9141C18.7849 127.065 16.8291 123.678 18.3937 120.967L82.4796 9.96749C84.0442 7.2575 87.9558 7.25749 89.5204 9.9675Z" stroke="black" stroke-width="3.87"/>
</svg>
