<svg width="172" height="172" viewBox="0 0 172 172" fill="none" xmlns="http://www.w3.org/2000/svg">
<path d="M50.4894 88.9255H52.2708V91.1213C52.2708 92.3641 52.0637 93.5241 51.6494 94.6013C51.2489 95.6646 50.6551 96.5899 49.8679 97.377C49.0808 98.1642 48.1279 98.7649 47.0093 99.1792L45.8286 97.4806C46.8505 97.1354 47.7067 96.6451 48.3972 96.0099C49.0877 95.3608 49.6055 94.6151 49.9508 93.7727C50.3098 92.9303 50.4894 92.0465 50.4894 91.1213V88.9255ZM50.9036 88.9255H52.6644V91.1834C52.6644 91.8048 52.7611 92.4125 52.9544 93.0063C53.1615 93.6001 53.4515 94.1594 53.8244 94.6842C54.2111 95.2089 54.6806 95.6716 55.233 96.072C55.7992 96.4725 56.4482 96.797 57.1802 97.0456L56.0823 98.7649C54.9775 98.3644 54.0384 97.7913 53.2651 97.0456C52.4918 96.2999 51.9049 95.423 51.5044 94.4149C51.1039 93.393 50.9036 92.3158 50.9036 91.1834V88.9255ZM58.6302 87.7655H60.7845V101.686H58.6302V87.7655ZM60.1423 93.4413H63.4567V95.2435H60.1423V93.4413ZM48.8529 104.565H61.5509V106.326H48.8529V104.565ZM48.8529 100.36H51.0279V105.476H48.8529V100.36ZM65.0708 102.576H82.2224V104.358H65.0708V102.576ZM72.4866 98.1435H74.6409V103.094H72.4866V98.1435ZM72.4037 88.9462H74.3095V90.3755C74.3095 91.1765 74.1783 91.9498 73.9159 92.6956C73.6673 93.4275 73.3013 94.1111 72.818 94.7463C72.3485 95.3815 71.7892 95.9547 71.1401 96.4656C70.4911 96.9766 69.773 97.4116 68.9858 97.7706C68.2125 98.1297 67.3977 98.3921 66.5415 98.5578L65.6301 96.7349C66.3758 96.6106 67.087 96.4035 67.7637 96.1135C68.4403 95.8235 69.0618 95.4713 69.628 95.057C70.1942 94.6427 70.6844 94.187 71.0987 93.6899C71.513 93.1789 71.8306 92.6472 72.0516 92.0948C72.2863 91.5286 72.4037 90.9555 72.4037 90.3755V88.9462ZM72.818 88.9462H74.703V90.3755C74.703 90.9555 74.8204 91.5286 75.0552 92.0948C75.2899 92.661 75.6145 93.1927 76.0288 93.6899C76.4431 94.187 76.9333 94.6496 77.4995 95.0777C78.0657 95.492 78.6871 95.8442 79.3638 96.1342C80.0405 96.4104 80.7586 96.6106 81.5181 96.7349L80.586 98.5578C79.7298 98.3921 78.9081 98.1297 78.1209 97.7706C77.3476 97.4116 76.6364 96.9835 75.9873 96.4863C75.3383 95.9754 74.7721 95.4023 74.2887 94.767C73.8192 94.118 73.4533 93.4275 73.1909 92.6956C72.9423 91.9498 72.818 91.1765 72.818 90.3755V88.9462ZM93.295 98.0399H95.4493V103.322H93.295V98.0399ZM99.1779 98.0606H101.332V103.322H99.1779V98.0606ZM88.7792 102.742H105.931V104.503H88.7792V102.742ZM90.1878 89.402H104.419V91.1627H90.1878V89.402ZM90.2707 96.942H104.377V98.6821H90.2707V96.942ZM92.9843 90.852H95.1386V97.232H92.9843V90.852ZM99.4679 90.852H101.622V97.232H99.4679V90.852ZM108.601 88.9877H110.631V91.8256H113.966V88.9877H115.996V97.9571H108.601V88.9877ZM110.631 93.5034V96.2378H113.966V93.5034H110.631ZM121.797 87.7862H123.868V99.1585H121.797V87.7862ZM119.083 92.5713H122.418V94.332H119.083V92.5713ZM117.757 88.1384H119.808V99.0756H117.757V88.1384ZM111.025 100.174H123.868V106.719H121.714V101.934H111.025V100.174Z" fill="black"/>
<path d="M89.5204 9.9675L153.606 120.968C155.171 123.678 153.215 127.065 150.086 127.065H21.9141C18.7849 127.065 16.8291 123.678 18.3937 120.967L82.4796 9.96749C84.0442 7.2575 87.9558 7.25749 89.5204 9.9675Z" stroke="black" stroke-width="3.87"/>
</svg>
