<svg width="172" height="172" viewBox="0 0 172 172" fill="none" xmlns="http://www.w3.org/2000/svg">
<path d="M48.5497 90.3548H54.2462V92.1156H48.5497V90.3548ZM48.5497 94.5806H54.2462V96.3413H48.5497V94.5806ZM45.2353 88.8219C46.1606 88.8219 46.9961 89.0153 47.7418 89.402C48.4875 89.7886 49.0744 90.3272 49.5025 91.0177C49.9306 91.6944 50.1447 92.4746 50.1447 93.3584C50.1447 94.2423 49.9306 95.0225 49.5025 95.6992C49.0744 96.3758 48.4875 96.9075 47.7418 97.2942C46.9961 97.6809 46.1606 97.8742 45.2353 97.8742C44.2963 97.8742 43.4539 97.6809 42.7082 97.2942C41.9625 96.9075 41.3755 96.3758 40.9474 95.6992C40.5193 95.0225 40.3053 94.2423 40.3053 93.3584C40.3053 92.4746 40.5193 91.6944 40.9474 91.0177C41.3755 90.3272 41.9625 89.7886 42.7082 89.402C43.4539 89.0153 44.2963 88.8219 45.2353 88.8219ZM45.2353 90.6448C44.683 90.6448 44.1927 90.7622 43.7646 90.997C43.3365 91.2179 42.9913 91.5356 42.7289 91.9498C42.4803 92.3503 42.356 92.8199 42.356 93.3584C42.356 93.897 42.4803 94.3734 42.7289 94.7877C42.9913 95.1882 43.3365 95.5058 43.7646 95.7406C44.1927 95.9616 44.6761 96.072 45.2146 96.072C45.767 96.072 46.2573 95.9616 46.6854 95.7406C47.1273 95.5058 47.4656 95.1882 47.7004 94.7877C47.949 94.3734 48.0732 93.897 48.0732 93.3584C48.0732 92.8199 47.949 92.3503 47.7004 91.9498C47.4656 91.5356 47.1273 91.2179 46.6854 90.997C46.2573 90.7622 45.7739 90.6448 45.2353 90.6448ZM53.5419 87.7862H55.7169V98.5785H53.5419V87.7862ZM43.2882 99.4899H55.7169V106.471H43.2882V99.4899ZM53.604 101.23H45.4218V104.751H53.604V101.23ZM59.0918 102.576H76.2434V104.358H59.0918V102.576ZM66.5076 98.1435H68.6619V103.094H66.5076V98.1435ZM66.4247 88.9462H68.3304V90.3755C68.3304 91.1765 68.1992 91.9498 67.9369 92.6956C67.6883 93.4275 67.3223 94.1111 66.839 94.7463C66.3695 95.3815 65.8102 95.9547 65.1611 96.4656C64.5121 96.9766 63.794 97.4116 63.0068 97.7706C62.2335 98.1297 61.4187 98.3921 60.5625 98.5578L59.651 96.7349C60.3968 96.6106 61.108 96.4035 61.7846 96.1135C62.4613 95.8235 63.0828 95.4713 63.649 95.057C64.2151 94.6427 64.7054 94.187 65.1197 93.6899C65.534 93.1789 65.8516 92.6472 66.0726 92.0948C66.3073 91.5286 66.4247 90.9555 66.4247 90.3755V88.9462ZM66.839 88.9462H68.724V90.3755C68.724 90.9555 68.8414 91.5286 69.0762 92.0948C69.3109 92.661 69.6355 93.1927 70.0497 93.6899C70.464 94.187 70.9543 94.6496 71.5205 95.0777C72.0867 95.492 72.7081 95.8442 73.3848 96.1342C74.0615 96.4104 74.7796 96.6106 75.5391 96.7349L74.6069 98.5578C73.7507 98.3921 72.9291 98.1297 72.1419 97.7706C71.3686 97.4116 70.6574 96.9835 70.0083 96.4863C69.3593 95.9754 68.7931 95.4023 68.3097 94.767C67.8402 94.118 67.4742 93.4275 67.2119 92.6956C66.9633 91.9498 66.839 91.1765 66.839 90.3755V88.9462ZM101.274 98.0399H103.428V103.322H101.274V98.0399ZM107.157 98.0606H109.311V103.322H107.157V98.0606ZM96.7582 102.742H113.91V104.503H96.7582V102.742ZM98.1668 89.402H112.398V91.1627H98.1668V89.402ZM98.2497 96.942H112.356V98.6821H98.2497V96.942ZM100.963 90.852H103.118V97.232H100.963V90.852ZM107.447 90.852H109.601V97.232H107.447V90.852ZM116.58 88.9877H118.61V91.8256H121.945V88.9877H123.976V97.9571H116.58V88.9877ZM118.61 93.5034V96.2378H121.945V93.5034H118.61ZM129.776 87.7862H131.847V99.1585H129.776V87.7862ZM127.062 92.5713H130.397V94.332H127.062V92.5713ZM125.736 88.1384H127.787V99.0756H125.736V88.1384ZM119.004 100.174H131.847V106.719H129.693V101.934H119.004V100.174Z" fill="black"/>
<path d="M89.5204 9.9675L153.606 120.968C155.171 123.678 153.215 127.065 150.086 127.065H21.9141C18.7849 127.065 16.8291 123.678 18.3937 120.967L82.4796 9.96749C84.0442 7.2575 87.9558 7.25749 89.5204 9.9675Z" stroke="black" stroke-width="3.87"/>
<path d="M129.001 50.4968L47.1602 142.983" stroke="black" stroke-width="4" stroke-linecap="round"/>
<path d="M122.678 140.654L43.4994 50.8293" stroke="black" stroke-width="4" stroke-linecap="round"/>
</svg>
