<svg width="195" height="195" viewBox="0 0 195 195" fill="none" xmlns="http://www.w3.org/2000/svg">
<path d="M80.3692 106.963H97.4794V108.703H80.3692V106.963ZM87.8058 109.801H89.6701V110.298C89.6701 111.126 89.4905 111.893 89.1315 112.597C88.7862 113.301 88.2891 113.93 87.64 114.482C86.991 115.021 86.2245 115.476 85.3407 115.849C84.4569 116.222 83.4902 116.485 82.4407 116.636L81.5914 114.959C82.5443 114.834 83.4005 114.627 84.16 114.337C84.9195 114.047 85.5686 113.695 86.1072 113.281C86.6595 112.866 87.0807 112.411 87.3707 111.914C87.6608 111.403 87.8058 110.864 87.8058 110.298V109.801ZM88.1579 109.801H90.0222V110.298C90.0222 110.864 90.1603 111.403 90.4365 111.914C90.7265 112.411 91.1477 112.866 91.7001 113.281C92.2525 113.695 92.9084 114.047 93.668 114.337C94.4275 114.627 95.2837 114.834 96.2366 114.959L95.3873 116.636C94.3239 116.485 93.3503 116.222 92.4665 115.849C91.5827 115.476 90.8163 115.021 90.1672 114.482C89.532 113.93 89.0348 113.301 88.6758 112.597C88.3305 111.893 88.1579 111.126 88.1579 110.298V109.801ZM87.8265 104.746H89.9601V107.626H87.8265V104.746ZM88.9243 98.1177C90.3053 98.1177 91.4998 98.2627 92.508 98.5527C93.5161 98.8427 94.2894 99.257 94.828 99.7955C95.3804 100.334 95.6566 100.99 95.6566 101.763C95.6566 102.509 95.3804 103.158 94.828 103.711C94.2894 104.249 93.5161 104.663 92.508 104.953C91.4998 105.23 90.3053 105.368 88.9243 105.368C87.5572 105.368 86.3626 105.23 85.3407 104.953C84.3326 104.663 83.5524 104.249 83 103.711C82.4476 103.158 82.1714 102.509 82.1714 101.763C82.1714 100.99 82.4476 100.334 83 99.7955C83.5524 99.257 84.3326 98.8427 85.3407 98.5527C86.3626 98.2627 87.5572 98.1177 88.9243 98.1177ZM88.9243 99.8162C87.9853 99.8162 87.1774 99.8922 86.5007 100.044C85.8241 100.196 85.3062 100.417 84.9471 100.707C84.5881 100.983 84.4086 101.335 84.4086 101.763C84.4086 102.164 84.5881 102.509 84.9471 102.799C85.3062 103.089 85.8241 103.31 86.5007 103.462C87.1774 103.614 87.9853 103.69 88.9243 103.69C89.8634 103.69 90.6644 103.614 91.3272 103.462C92.0039 103.31 92.5218 103.089 92.8808 102.799C93.2399 102.509 93.4194 102.164 93.4194 101.763C93.4194 101.335 93.2399 100.983 92.8808 100.707C92.5218 100.417 92.0039 100.196 91.3272 100.044C90.6644 99.8922 89.8634 99.8162 88.9243 99.8162ZM112.931 97.7655H115.106V107.356H112.931V97.7655ZM109.182 102.095H113.242V103.835H109.182V102.095ZM106.737 98.5941H109.016C109.016 100.196 108.677 101.605 108.001 102.82C107.338 104.035 106.364 105.057 105.08 105.886C103.81 106.714 102.256 107.356 100.419 107.812L99.6736 106.093C101.248 105.72 102.553 105.223 103.589 104.601C104.638 103.966 105.425 103.234 105.95 102.406C106.475 101.563 106.737 100.645 106.737 99.6505V98.5941ZM100.709 98.5941H108.519V100.334H100.709V98.5941ZM102.781 108.143H115.106V113.053H104.976V115.766H102.822V111.416H112.952V109.863H102.781V108.143ZM102.822 114.793H115.624V116.533H102.822V114.793ZM131.883 97.7655H134.058V116.74H131.883V97.7655ZM123.991 99.1534C124.93 99.1534 125.765 99.4296 126.497 99.982C127.243 100.534 127.823 101.308 128.237 102.302C128.652 103.296 128.859 104.47 128.859 105.823C128.859 107.191 128.652 108.378 128.237 109.386C127.823 110.381 127.243 111.154 126.497 111.706C125.765 112.245 124.93 112.514 123.991 112.514C123.052 112.514 122.209 112.245 121.464 111.706C120.732 111.154 120.152 110.381 119.724 109.386C119.309 108.378 119.102 107.191 119.102 105.823C119.102 104.47 119.309 103.296 119.724 102.302C120.152 101.308 120.732 100.534 121.464 99.982C122.209 99.4296 123.052 99.1534 123.991 99.1534ZM123.991 101.121C123.438 101.121 122.948 101.308 122.52 101.681C122.106 102.053 121.781 102.592 121.546 103.296C121.312 104.001 121.194 104.843 121.194 105.823C121.194 106.818 121.312 107.667 121.546 108.371C121.781 109.076 122.106 109.621 122.52 110.008C122.948 110.381 123.438 110.567 123.991 110.567C124.543 110.567 125.027 110.381 125.441 110.008C125.855 109.621 126.18 109.076 126.414 108.371C126.649 107.667 126.767 106.818 126.767 105.823C126.767 104.843 126.649 104.001 126.414 103.296C126.18 102.592 125.855 102.053 125.441 101.681C125.027 101.308 124.543 101.121 123.991 101.121Z" fill="black"/>
<circle cx="97.5008" cy="96.7965" r="54.6967" stroke="black" stroke-width="3.87"/>
<path d="M97.1484 28.9089L97.1484 41.5719" stroke="black" stroke-width="3.87" stroke-linecap="round"/>
<path d="M97.1484 153.428L97.1484 166.091" stroke="black" stroke-width="3.87" stroke-linecap="round"/>
<path d="M166.795 97.1484L154.132 97.1484" stroke="black" stroke-width="3.87" stroke-linecap="round"/>
<path d="M40.8672 97.1484L28.2042 97.1484" stroke="black" stroke-width="3.87" stroke-linecap="round"/>
<path d="M145.752 48.75L136.798 57.7041" stroke="black" stroke-width="3.87" stroke-linecap="round"/>
<path d="M57.7031 136.799L48.749 145.753" stroke="black" stroke-width="3.87" stroke-linecap="round"/>
<path d="M146.746 146.25L137.792 137.296" stroke="black" stroke-width="3.87" stroke-linecap="round"/>
<path d="M57.7031 57.2068L48.749 48.2527" stroke="black" stroke-width="3.87" stroke-linecap="round"/>
<path d="M81 45L45 81" stroke="black" stroke-width="3.87" stroke-linecap="round"/>
<path d="M91 44L43 92" stroke="black" stroke-width="3.87" stroke-linecap="round"/>
<path d="M101 43L43 101" stroke="black" stroke-width="3.87" stroke-linecap="round"/>
<path d="M109 44L44 109" stroke="black" stroke-width="3.87" stroke-linecap="round"/>
<path d="M116 46L47 115" stroke="black" stroke-width="3.87" stroke-linecap="round"/>
</svg>
