<svg width="195" height="195" viewBox="0 0 195 195" fill="none" xmlns="http://www.w3.org/2000/svg">
<path d="M74.4443 100.475H76.6193V108.139H74.4443V100.475ZM82.9373 89.7862H85.0916V108.719H82.9373V89.7862ZM69.5557 101.573L69.2864 99.7706C70.5154 99.7706 71.8205 99.7637 73.2014 99.7499C74.5962 99.7223 76.0186 99.674 77.4686 99.6049C78.9186 99.5221 80.3203 99.3978 81.6737 99.232L81.798 100.848C80.4032 101.055 78.9877 101.214 77.5515 101.324C76.1291 101.421 74.7343 101.49 73.3671 101.531C72.0138 101.559 70.7433 101.573 69.5557 101.573ZM71.0471 95.607H80.2858V97.3677H71.0471V95.607ZM71.0471 91.0084H73.2221V96.042H71.0471V91.0084ZM93.5208 91.1534C94.4598 91.1534 95.2884 91.4296 96.0065 91.982C96.7246 92.5343 97.2908 93.3077 97.7051 94.302C98.1194 95.2963 98.3265 96.4701 98.3265 97.8235C98.3265 99.1906 98.1194 100.378 97.7051 101.386C97.2908 102.381 96.7246 103.154 96.0065 103.706C95.2884 104.245 94.4598 104.514 93.5208 104.514C92.5955 104.514 91.7669 104.245 91.035 103.706C90.3169 103.154 89.7507 102.381 89.3364 101.386C88.9359 100.378 88.7357 99.1906 88.7357 97.8235C88.7357 96.4701 88.9359 95.2963 89.3364 94.302C89.7507 93.3077 90.3169 92.5343 91.035 91.982C91.7669 91.4296 92.5955 91.1534 93.5208 91.1534ZM93.5208 93.1213C92.9822 93.1213 92.5058 93.3077 92.0915 93.6806C91.691 94.0534 91.3734 94.592 91.1386 95.2963C90.9176 96.0006 90.8072 96.843 90.8072 97.8235C90.8072 98.8178 90.9176 99.6671 91.1386 100.371C91.3734 101.076 91.691 101.621 92.0915 102.008C92.5058 102.381 92.9822 102.567 93.5208 102.567C94.0732 102.567 94.5496 102.381 94.9501 102.008C95.3644 101.621 95.682 101.076 95.9029 100.371C96.1377 99.6671 96.2551 98.8178 96.2551 97.8235C96.2551 96.843 96.1377 96.0006 95.9029 95.2963C95.682 94.592 95.3644 94.0534 94.9501 93.6806C94.5496 93.3077 94.0732 93.1213 93.5208 93.1213ZM101.972 89.7655H104.147V108.74H101.972V89.7655ZM97.643 96.8084H102.904V98.5692H97.643V96.8084ZM116.968 95.9799H122.126V97.7406H116.968V95.9799ZM112.142 91.3191H113.902V94.4263C113.902 95.5449 113.785 96.6358 113.55 97.6992C113.315 98.7487 112.97 99.7361 112.514 100.661C112.072 101.573 111.527 102.388 110.878 103.106C110.243 103.81 109.518 104.369 108.703 104.784L107.356 103.064C108.102 102.705 108.765 102.222 109.345 101.614C109.939 101.007 110.443 100.316 110.857 99.5428C111.285 98.7556 111.603 97.9339 111.81 97.0777C112.031 96.2077 112.142 95.3239 112.142 94.4263V91.3191ZM112.577 91.3191H114.317V94.4263C114.317 95.2963 114.42 96.1594 114.627 97.0156C114.848 97.858 115.166 98.652 115.58 99.3978C115.994 100.13 116.492 100.786 117.072 101.366C117.652 101.946 118.308 102.401 119.039 102.733L117.734 104.473C116.92 104.059 116.195 103.513 115.559 102.836C114.924 102.146 114.386 101.359 113.944 100.475C113.502 99.5911 113.163 98.6382 112.929 97.6163C112.694 96.5806 112.577 95.5172 112.577 94.4263V91.3191ZM121.028 89.7655H123.203V108.74H121.028V89.7655Z" fill="black"/>
<circle cx="97.5008" cy="96.7965" r="54.6967" stroke="black" stroke-width="3.87"/>
<path d="M97.1484 28.9089L97.1484 41.5719" stroke="black" stroke-width="3.87" stroke-linecap="round"/>
<path d="M97.1484 153.428L97.1484 166.091" stroke="black" stroke-width="3.87" stroke-linecap="round"/>
<path d="M166.795 97.1484L154.132 97.1484" stroke="black" stroke-width="3.87" stroke-linecap="round"/>
<path d="M40.8672 97.1484L28.2042 97.1484" stroke="black" stroke-width="3.87" stroke-linecap="round"/>
<path d="M145.752 48.75L136.798 57.7041" stroke="black" stroke-width="3.87" stroke-linecap="round"/>
<path d="M57.7031 136.799L48.749 145.753" stroke="black" stroke-width="3.87" stroke-linecap="round"/>
<path d="M146.746 146.25L137.792 137.296" stroke="black" stroke-width="3.87" stroke-linecap="round"/>
<path d="M57.7031 57.2068L48.749 48.2527" stroke="black" stroke-width="3.87" stroke-linecap="round"/>
</svg>
