<svg width="195" height="195" viewBox="0 0 195 195" fill="none" xmlns="http://www.w3.org/2000/svg">
<path d="M70.3692 96.9628H87.4794V98.7028H70.3692V96.9628ZM77.8058 99.8007H79.6701V100.298C79.6701 101.126 79.4905 101.893 79.1315 102.597C78.7862 103.301 78.2891 103.93 77.64 104.482C76.991 105.021 76.2245 105.476 75.3407 105.849C74.4569 106.222 73.4902 106.485 72.4407 106.636L71.5914 104.959C72.5443 104.834 73.4005 104.627 74.16 104.337C74.9195 104.047 75.5686 103.695 76.1072 103.281C76.6595 102.866 77.0807 102.411 77.3707 101.914C77.6608 101.403 77.8058 100.864 77.8058 100.298V99.8007ZM78.1579 99.8007H80.0222V100.298C80.0222 100.864 80.1603 101.403 80.4365 101.914C80.7265 102.411 81.1477 102.866 81.7001 103.281C82.2525 103.695 82.9084 104.047 83.668 104.337C84.4275 104.627 85.2837 104.834 86.2366 104.959L85.3873 106.636C84.3239 106.485 83.3503 106.222 82.4665 105.849C81.5827 105.476 80.8163 105.021 80.1672 104.482C79.532 103.93 79.0348 103.301 78.6758 102.597C78.3305 101.893 78.1579 101.126 78.1579 100.298V99.8007ZM77.8265 94.7463H79.9601V97.6256H77.8265V94.7463ZM78.9243 88.1177C80.3053 88.1177 81.4998 88.2627 82.508 88.5527C83.5161 88.8427 84.2894 89.257 84.828 89.7955C85.3804 90.3341 85.6566 90.9901 85.6566 91.7634C85.6566 92.5091 85.3804 93.1582 84.828 93.7106C84.2894 94.2492 83.5161 94.6634 82.508 94.9534C81.4998 95.2296 80.3053 95.3677 78.9243 95.3677C77.5572 95.3677 76.3626 95.2296 75.3407 94.9534C74.3326 94.6634 73.5524 94.2492 73 93.7106C72.4476 93.1582 72.1714 92.5091 72.1714 91.7634C72.1714 90.9901 72.4476 90.3341 73 89.7955C73.5524 89.257 74.3326 88.8427 75.3407 88.5527C76.3626 88.2627 77.5572 88.1177 78.9243 88.1177ZM78.9243 89.8162C77.9853 89.8162 77.1774 89.8922 76.5007 90.0441C75.8241 90.196 75.3062 90.417 74.9471 90.707C74.5881 90.9832 74.4086 91.3353 74.4086 91.7634C74.4086 92.1639 74.5881 92.5091 74.9471 92.7991C75.3062 93.0891 75.8241 93.3101 76.5007 93.462C77.1774 93.6139 77.9853 93.6899 78.9243 93.6899C79.8634 93.6899 80.6644 93.6139 81.3272 93.462C82.0039 93.3101 82.5218 93.0891 82.8808 92.7991C83.2399 92.5091 83.4194 92.1639 83.4194 91.7634C83.4194 91.3353 83.2399 90.9832 82.8808 90.707C82.5218 90.417 82.0039 90.196 81.3272 90.0441C80.6644 89.8922 79.8634 89.8162 78.9243 89.8162ZM102.931 87.7655H105.106V97.3563H102.931V87.7655ZM99.1815 92.0948H103.242V93.8349H99.1815V92.0948ZM96.7372 88.5941H99.0158C99.0158 90.196 98.6775 91.6046 98.0008 92.8199C97.3379 94.0351 96.3644 95.057 95.0801 95.8856C93.8096 96.7142 92.256 97.3563 90.4193 97.8121L89.6736 96.0927C91.2479 95.7199 92.5529 95.2227 93.5886 94.6013C94.6381 93.9661 95.4253 93.2341 95.9501 92.4056C96.4748 91.5632 96.7372 90.6448 96.7372 89.6505V88.5941ZM90.7093 88.5941H98.5187V90.3341H90.7093V88.5941ZM92.7807 98.1435H105.106V103.053H94.9765V105.766H92.8222V101.416H102.952V99.8628H92.7807V98.1435ZM92.8222 104.793H105.624V106.533H92.8222V104.793ZM121.883 87.7655H124.058V106.74H121.883V87.7655ZM113.991 89.1534C114.93 89.1534 115.765 89.4296 116.497 89.982C117.243 90.5343 117.823 91.3077 118.237 92.302C118.652 93.2963 118.859 94.4701 118.859 95.8235C118.859 97.1906 118.652 98.3783 118.237 99.3864C117.823 100.381 117.243 101.154 116.497 101.706C115.765 102.245 114.93 102.514 113.991 102.514C113.052 102.514 112.209 102.245 111.464 101.706C110.732 101.154 110.152 100.381 109.724 99.3864C109.309 98.3783 109.102 97.1906 109.102 95.8235C109.102 94.4701 109.309 93.2963 109.724 92.302C110.152 91.3077 110.732 90.5343 111.464 89.982C112.209 89.4296 113.052 89.1534 113.991 89.1534ZM113.991 91.1213C113.438 91.1213 112.948 91.3077 112.52 91.6806C112.106 92.0534 111.781 92.592 111.546 93.2963C111.312 94.0006 111.194 94.843 111.194 95.8235C111.194 96.8178 111.312 97.6671 111.546 98.3713C111.781 99.0756 112.106 99.6211 112.52 100.008C112.948 100.381 113.438 100.567 113.991 100.567C114.543 100.567 115.027 100.381 115.441 100.008C115.855 99.6211 116.18 99.0756 116.414 98.3713C116.649 97.6671 116.767 96.8178 116.767 95.8235C116.767 94.843 116.649 94.0006 116.414 93.2963C116.18 92.592 115.855 92.0534 115.441 91.6806C115.027 91.3077 114.543 91.1213 113.991 91.1213Z" fill="black"/>
<circle cx="97.5008" cy="96.7965" r="54.6967" stroke="black" stroke-width="3.87"/>
<path d="M97.1484 28.9089L97.1484 41.5719" stroke="black" stroke-width="3.87" stroke-linecap="round"/>
<path d="M97.1484 153.428L97.1484 166.091" stroke="black" stroke-width="3.87" stroke-linecap="round"/>
<path d="M166.795 97.1484L154.132 97.1484" stroke="black" stroke-width="3.87" stroke-linecap="round"/>
<path d="M40.8672 97.1484L28.2042 97.1484" stroke="black" stroke-width="3.87" stroke-linecap="round"/>
<path d="M145.752 48.75L136.798 57.7041" stroke="black" stroke-width="3.87" stroke-linecap="round"/>
<path d="M57.7031 136.799L48.749 145.753" stroke="black" stroke-width="3.87" stroke-linecap="round"/>
<path d="M146.746 146.25L137.792 137.296" stroke="black" stroke-width="3.87" stroke-linecap="round"/>
<path d="M57.7031 57.2068L48.749 48.2527" stroke="black" stroke-width="3.87" stroke-linecap="round"/>
</svg>
