<svg width="195" height="195" viewBox="0 0 195 195" fill="none" xmlns="http://www.w3.org/2000/svg">
<path d="M85.4443 108.475H87.6193V116.139H85.4443V108.475ZM93.9373 97.7862H96.0916V116.719H93.9373V97.7862ZM80.5557 109.573L80.2864 107.771C81.5154 107.771 82.8205 107.764 84.2014 107.75C85.5962 107.722 87.0186 107.674 88.4686 107.605C89.9186 107.522 91.3203 107.398 92.6737 107.232L92.798 108.848C91.4032 109.055 89.9877 109.214 88.5515 109.324C87.1291 109.421 85.7343 109.49 84.3671 109.531C83.0138 109.559 81.7433 109.573 80.5557 109.573ZM82.0471 103.607H91.2858V105.368H82.0471V103.607ZM82.0471 99.0084H84.2221V104.042H82.0471V99.0084ZM104.521 99.1534C105.46 99.1534 106.288 99.4296 107.007 99.982C107.725 100.534 108.291 101.308 108.705 102.302C109.119 103.296 109.327 104.47 109.327 105.823C109.327 107.191 109.119 108.378 108.705 109.386C108.291 110.381 107.725 111.154 107.007 111.706C106.288 112.245 105.46 112.514 104.521 112.514C103.596 112.514 102.767 112.245 102.035 111.706C101.317 111.154 100.751 110.381 100.336 109.386C99.9359 108.378 99.7357 107.191 99.7357 105.823C99.7357 104.47 99.9359 103.296 100.336 102.302C100.751 101.308 101.317 100.534 102.035 99.982C102.767 99.4296 103.596 99.1534 104.521 99.1534ZM104.521 101.121C103.982 101.121 103.506 101.308 103.091 101.681C102.691 102.053 102.373 102.592 102.139 103.296C101.918 104.001 101.807 104.843 101.807 105.823C101.807 106.818 101.918 107.667 102.139 108.371C102.373 109.076 102.691 109.621 103.091 110.008C103.506 110.381 103.982 110.567 104.521 110.567C105.073 110.567 105.55 110.381 105.95 110.008C106.364 109.621 106.682 109.076 106.903 108.371C107.138 107.667 107.255 106.818 107.255 105.823C107.255 104.843 107.138 104.001 106.903 103.296C106.682 102.592 106.364 102.053 105.95 101.681C105.55 101.308 105.073 101.121 104.521 101.121ZM112.972 97.7655H115.147V116.74H112.972V97.7655ZM108.643 104.808H113.904V106.569H108.643V104.808ZM127.968 103.98H133.126V105.741H127.968V103.98ZM123.142 99.3191H124.902V102.426C124.902 103.545 124.785 104.636 124.55 105.699C124.315 106.749 123.97 107.736 123.514 108.661C123.072 109.573 122.527 110.388 121.878 111.106C121.243 111.81 120.518 112.369 119.703 112.784L118.356 111.064C119.102 110.705 119.765 110.222 120.345 109.614C120.939 109.007 121.443 108.316 121.857 107.543C122.285 106.756 122.603 105.934 122.81 105.078C123.031 104.208 123.142 103.324 123.142 102.426V99.3191ZM123.577 99.3191H125.317V102.426C125.317 103.296 125.42 104.159 125.627 105.016C125.848 105.858 126.166 106.652 126.58 107.398C126.994 108.13 127.492 108.786 128.072 109.366C128.652 109.946 129.308 110.401 130.039 110.733L128.734 112.473C127.92 112.059 127.195 111.513 126.559 110.836C125.924 110.146 125.386 109.359 124.944 108.475C124.502 107.591 124.163 106.638 123.929 105.616C123.694 104.581 123.577 103.517 123.577 102.426V99.3191ZM132.028 97.7655H134.203V116.74H132.028V97.7655Z" fill="black"/>
<circle cx="97.5008" cy="96.7965" r="54.6967" stroke="black" stroke-width="3.87"/>
<path d="M97.1484 28.9089L97.1484 41.5719" stroke="black" stroke-width="3.87" stroke-linecap="round"/>
<path d="M97.1484 153.428L97.1484 166.091" stroke="black" stroke-width="3.87" stroke-linecap="round"/>
<path d="M166.795 97.1484L154.132 97.1484" stroke="black" stroke-width="3.87" stroke-linecap="round"/>
<path d="M40.8672 97.1484L28.2042 97.1484" stroke="black" stroke-width="3.87" stroke-linecap="round"/>
<path d="M145.752 48.75L136.798 57.7041" stroke="black" stroke-width="3.87" stroke-linecap="round"/>
<path d="M57.7031 136.799L48.749 145.753" stroke="black" stroke-width="3.87" stroke-linecap="round"/>
<path d="M146.746 146.25L137.792 137.296" stroke="black" stroke-width="3.87" stroke-linecap="round"/>
<path d="M57.7031 57.2068L48.749 48.2527" stroke="black" stroke-width="3.87" stroke-linecap="round"/>
<path d="M81 45L45 81" stroke="black" stroke-width="3.87" stroke-linecap="round"/>
<path d="M91 44L43 92" stroke="black" stroke-width="3.87" stroke-linecap="round"/>
<path d="M101 43L43 101" stroke="black" stroke-width="3.87" stroke-linecap="round"/>
<path d="M109 44L44 109" stroke="black" stroke-width="3.87" stroke-linecap="round"/>
<path d="M116 46L47 115" stroke="black" stroke-width="3.87" stroke-linecap="round"/>
</svg>
