<svg width="97" height="132" viewBox="0 0 97 132" fill="none" xmlns="http://www.w3.org/2000/svg">
<path d="M28.2 90.3839C27.1001 90.3839 26.1464 90.1863 25.3386 89.791C24.5481 89.3786 23.8779 88.8974 23.328 88.3474L24.952 86.4914C25.33 86.921 25.7941 87.2648 26.344 87.5225C26.8939 87.7803 27.461 87.9092 28.0453 87.9092C28.6468 87.9092 29.2139 87.7717 29.7467 87.4968C30.2966 87.2218 30.7692 86.775 31.1645 86.1563C31.5769 85.5376 31.8949 84.7127 32.1183 83.6816C32.3589 82.6505 32.4792 81.3873 32.4792 79.8922C32.4792 78.3112 32.3245 77.0137 32.0152 75.9997C31.7058 74.9686 31.2676 74.2124 30.7005 73.7313C30.1506 73.2329 29.4889 72.9837 28.7156 72.9837C28.1656 72.9837 27.6673 73.147 27.2204 73.4735C26.7736 73.7828 26.4213 74.2296 26.1635 74.8139C25.9058 75.3982 25.7769 76.1028 25.7769 76.9277C25.7769 77.7355 25.8886 78.4229 26.112 78.99C26.3526 79.5571 26.7049 79.9953 27.1689 80.3047C27.6329 80.5968 28.1914 80.7429 28.8445 80.7429C29.446 80.7429 30.0646 80.5539 30.7005 80.1758C31.3363 79.7977 31.9378 79.179 32.505 78.3198L32.6338 80.5109C32.2729 80.9921 31.8519 81.4131 31.3707 81.774C30.8895 82.1349 30.3911 82.4185 29.8756 82.6247C29.36 82.8137 28.8445 82.9083 28.3289 82.9083C27.2806 82.9083 26.3526 82.6848 25.5449 82.238C24.7543 81.7912 24.1271 81.1296 23.6631 80.2531C23.2162 79.3595 22.9928 78.251 22.9928 76.9277C22.9928 75.6732 23.2506 74.5819 23.7662 73.6539C24.2989 72.7087 24.9949 71.9783 25.8542 71.4628C26.7135 70.9472 27.6501 70.6894 28.664 70.6894C29.5748 70.6894 30.4255 70.8785 31.216 71.2566C32.0238 71.6175 32.7198 72.176 33.3041 72.9321C33.9056 73.6883 34.3782 74.6421 34.7219 75.7935C35.0656 76.9449 35.2374 78.3112 35.2374 79.8922C35.2374 81.7482 35.0484 83.3465 34.6703 84.6869C34.2922 86.0102 33.7681 87.0929 33.0978 87.935C32.4276 88.7599 31.6715 89.3786 30.8294 89.791C29.9873 90.1863 29.1108 90.3839 28.2 90.3839ZM43.5203 90.3839C42.5407 90.3839 41.6642 90.2636 40.8909 90.023C40.1175 89.7824 39.4387 89.4645 38.8544 89.0692C38.2701 88.674 37.7546 88.2615 37.3077 87.8319L38.7255 85.8985C39.0864 86.2594 39.4817 86.5945 39.9113 86.9039C40.341 87.196 40.8221 87.4366 41.3549 87.6256C41.9048 87.8147 42.5149 87.9092 43.1851 87.9092C43.8897 87.9092 44.5256 87.7545 45.0927 87.4452C45.6598 87.1187 46.1067 86.6547 46.4332 86.0532C46.7597 85.4345 46.923 84.7041 46.923 83.862C46.923 82.6247 46.5878 81.6623 45.9176 80.9749C45.2646 80.2875 44.3967 79.9438 43.314 79.9438C42.7125 79.9438 42.197 80.0297 41.7673 80.2016C41.3377 80.3734 40.8479 80.6398 40.298 81.0007L38.8286 80.0469L39.3958 71.0246H49.011V73.5508H41.9736L41.5353 78.3971C41.9478 78.1909 42.3602 78.0362 42.7727 77.9331C43.1851 77.8128 43.6406 77.7526 44.1389 77.7526C45.2044 77.7526 46.1754 77.9675 47.0519 78.3971C47.9283 78.8267 48.6243 79.4884 49.1399 80.382C49.6554 81.2585 49.9132 82.3927 49.9132 83.7847C49.9132 85.1767 49.6125 86.3711 49.011 87.3679C48.4095 88.3474 47.619 89.095 46.6394 89.6106C45.677 90.1261 44.6373 90.3839 43.5203 90.3839ZM56.1338 77.8815C55.4464 77.8815 54.8105 77.7269 54.2262 77.4175C53.6419 77.091 53.1779 76.6356 52.8342 76.0513C52.4905 75.467 52.3186 74.7968 52.3186 74.0406C52.3186 73.2501 52.4905 72.5712 52.8342 72.0041C53.1779 71.4198 53.6419 70.9644 54.2262 70.6379C54.8105 70.3114 55.4464 70.1481 56.1338 70.1481C56.8384 70.1481 57.4743 70.3114 58.0414 70.6379C58.6257 70.9644 59.0897 71.4198 59.4334 72.0041C59.7943 72.5712 59.9747 73.2501 59.9747 74.0406C59.9747 74.7968 59.7943 75.467 59.4334 76.0513C59.0897 76.6356 58.6257 77.091 58.0414 77.4175C57.4743 77.7269 56.8384 77.8815 56.1338 77.8815ZM56.1338 76.3091C56.7697 76.3091 57.2852 76.1028 57.6805 75.6904C58.0757 75.2608 58.2734 74.7108 58.2734 74.0406C58.2734 73.3532 58.0757 72.8032 57.6805 72.3908C57.2852 71.9612 56.7697 71.7463 56.1338 71.7463C55.5151 71.7463 55.0082 71.9612 54.6129 72.3908C54.2348 72.8032 54.0458 73.3532 54.0458 74.0406C54.0458 74.7108 54.2348 75.2608 54.6129 75.6904C55.0082 76.1028 55.5151 76.3091 56.1338 76.3091ZM70.3891 90.3839C68.7737 90.3839 67.3129 89.9972 66.0068 89.2239C64.7179 88.4505 63.6954 87.3421 62.9392 85.8985C62.2002 84.4378 61.8308 82.6677 61.8308 80.5882C61.8308 79.0415 62.0456 77.6581 62.4752 76.438C62.922 75.2178 63.5407 74.1781 64.3312 73.3188C65.1218 72.4595 66.0412 71.8065 67.0895 71.3597C68.1378 70.9129 69.272 70.6894 70.4922 70.6894C71.6436 70.6894 72.6747 70.9386 73.5856 71.437C74.5136 71.9182 75.2611 72.4595 75.8283 73.061L74.1269 74.9944C73.6457 74.4788 73.113 74.0836 72.5287 73.8086C71.9444 73.5164 71.2827 73.3704 70.5437 73.3704C69.4439 73.3704 68.4729 73.6625 67.6308 74.2468C66.8059 74.8139 66.1529 75.6302 65.6717 76.6957C65.2077 77.744 64.9757 79.0072 64.9757 80.4851C64.9757 81.9631 65.1991 83.2434 65.6459 84.3261C66.0927 85.4087 66.72 86.2422 67.5277 86.8265C68.3526 87.4108 69.3236 87.703 70.4406 87.703C71.2999 87.703 72.0561 87.5311 72.7091 87.1874C73.3622 86.8437 73.9636 86.3625 74.5136 85.7438L76.2407 87.6256C75.4674 88.5021 74.5909 89.1809 73.6113 89.6621C72.649 90.1433 71.5749 90.3839 70.3891 90.3839Z" fill="black"/>
<rect x="1.93336" y="1.93336" width="92.8011" height="127.602" rx="7.08898" stroke="black" stroke-width="3.86671"/>
<path d="M2.57812 28.3559H92.8014" stroke="black" stroke-width="5.15562" stroke-linecap="round"/>
<circle cx="83.1358" cy="16.1113" r="5.80007" stroke="black" stroke-width="2.57781"/>
</svg>
