<svg width="88" height="88" viewBox="0 0 88 88" fill="none" xmlns="http://www.w3.org/2000/svg">
<rect width="87.2744" height="87.2744" rx="17.6312" fill="#5F4C32"/>
<path d="M23 31L31.1325 62.3683H58.4345L65.9861 31" stroke="#FFFEFE" stroke-width="2.32358" stroke-linecap="round"/>
<path fill-rule="evenodd" clip-rule="evenodd" d="M43.0623 39.5129C42.5041 39.8364 42.0022 40.2913 41.7048 40.6206C40.8939 41.8918 39.8949 42.6744 38.8259 43.0901C37.7507 43.5082 36.6639 43.5327 35.7196 43.389C34.7771 43.2456 33.9456 42.9304 33.3462 42.6307C33.0466 42.4809 32.7905 42.3277 32.5977 42.1902C32.5041 42.1233 32.4068 42.047 32.3232 41.9651C32.2829 41.9256 32.2257 41.8654 32.1722 41.7881L32.1713 41.7868C32.1637 41.7759 32.1503 41.7564 32.1341 41.7293C30.7844 40.1036 29.4061 39.5716 28.2716 39.4978C27.0822 39.4204 26.0725 39.8414 25.538 40.2232C25.1464 40.5029 24.6022 40.4122 24.3225 40.0206C24.0428 39.629 24.1335 39.0848 24.5251 38.8051C25.346 38.2188 26.747 37.6522 28.3847 37.7588C30.0595 37.8678 31.8991 38.6756 33.5499 40.7074L33.5907 40.7576L33.6101 40.7717C33.7146 40.8463 33.8897 40.9541 34.1256 41.072C34.5972 41.3078 35.2542 41.5554 35.9818 41.6661C36.7076 41.7766 37.4724 41.7466 38.1943 41.4659C38.9047 41.1896 39.633 40.648 40.2673 39.6333L40.3043 39.5739L40.3504 39.5213C40.7377 39.0786 41.4045 38.4595 42.1885 38.0051C42.9283 37.5764 43.9541 37.1915 44.9861 37.5031C45.8469 37.3923 46.6766 37.7091 47.3008 38.0586C48.064 38.486 48.7139 39.0689 49.0926 39.4871L49.14 39.5395L49.1784 39.5988C49.7873 40.5403 50.4878 41.0451 51.1759 41.3037C51.8759 41.5668 52.6186 41.5951 53.3238 41.4914C54.0301 41.3875 54.6674 41.1553 55.1241 40.9347C55.3526 40.8243 55.5216 40.7236 55.6218 40.6545L55.6369 40.644L55.6731 40.6009C57.2834 38.6857 59.0741 37.9287 60.6972 37.8267C62.2849 37.7269 63.6456 38.2573 64.4464 38.8101C64.8425 39.0834 64.9419 39.6261 64.6686 40.0221C64.3952 40.4182 63.8525 40.5176 63.4565 40.2443C62.9418 39.889 61.9627 39.4932 60.8065 39.5659C59.7037 39.6353 58.372 40.1343 57.0708 41.6474C57.0552 41.6724 57.0424 41.6903 57.0352 41.7003L57.0338 41.7022C56.9792 41.7784 56.9214 41.8371 56.8815 41.8749C56.7985 41.9535 56.7026 42.0261 56.6112 42.0891C56.4229 42.219 56.1735 42.3631 55.8822 42.5038C55.2994 42.7854 54.4919 43.081 53.5773 43.2155C52.6615 43.3502 51.6071 43.3274 50.5628 42.935C49.5249 42.545 48.5501 41.8091 47.7569 40.6092C47.4706 40.3034 46.9873 39.8804 46.4494 39.5792C45.8574 39.2477 45.3783 39.1609 45.0491 39.2669C44.7696 39.3569 44.4778 39.2983 44.2593 39.1348C43.944 39.1197 43.5395 39.2363 43.0623 39.5129Z" fill="white"/>
</svg>
